STARTFONT 2.1
FONT -FontForge-Helvetica-Book-R-Normal--24-240-75-75-P-134-ISO10646-1
SIZE 24 75 75
FONTBOUNDINGBOX 24 25 -1 -5
COMMENT "Generated by fontforge, http://fontforge.sourceforge.net"
COMMENT "(c) 1990-2006 Apple Computer Inc. (c) 1981 Linotype AG (c) 1990-91 Type Solutions Inc."
STARTPROPERTIES 41
FOUNDRY "FontForge"
FAMILY_NAME "Helvetica"
WEIGHT_NAME "Book"
SLANT "R"
SETWIDTH_NAME "Normal"
ADD_STYLE_NAME ""
PIXEL_SIZE 24
POINT_SIZE 240
RESOLUTION_X 75
RESOLUTION_Y 75
SPACING "P"
AVERAGE_WIDTH 134
CHARSET_REGISTRY "ISO10646"
CHARSET_ENCODING "1"
FONTNAME_REGISTRY ""
CHARSET_COLLECTIONS "ISO8859-2 ISO8859-5 ISO8859-7 ISO8859-9 ISO8859-4 ISO10646-1"
FONT_NAME "Helvetica"
FACE_NAME "Helvetica"
COPYRIGHT "(c) 1990-2006 Apple Computer Inc. (c) 1981 Linotype AG (c) 1990-91 Type Solutions Inc."
FONT_VERSION "17.0d1e1"
FONT_ASCENT 19
FONT_DESCENT 5
UNDERLINE_POSITION -2
UNDERLINE_THICKNESS 2
X_HEIGHT 13
CAP_HEIGHT 17
DEFAULT_CHAR 1
RAW_ASCENT 799
RAW_DESCENT 200
NORM_SPACE 7
RELATIVE_WEIGHT 40
RELATIVE_SETWIDTH 50
SUPERSCRIPT_X 0
SUPERSCRIPT_Y 11
SUPERSCRIPT_SIZE 15
SUBSCRIPT_X 0
SUBSCRIPT_Y 3
SUBSCRIPT_SIZE 15
FIGURE_WIDTH 13
AVG_LOWERCASE_WIDTH 133
AVG_UPPERCASE_WIDTH 173
ENDPROPERTIES
CHARS 97
STARTCHAR space
ENCODING 32
SWIDTH 277 0
DWIDTH 7 0
BBX 1 1 0 0
BITMAP
00
ENDCHAR
STARTCHAR exclam
ENCODING 33
SWIDTH 277 0
DWIDTH 7 0
BBX 2 18 3 0
BITMAP
C0
C0
C0
C0
C0
C0
C0
C0
C0
C0
C0
C0
C0
C0
00
00
C0
C0
ENDCHAR
STARTCHAR quotedbl
ENCODING 34
SWIDTH 354 0
DWIDTH 8 0
BBX 6 7 1 11
BITMAP
CC
CC
CC
CC
CC
CC
CC
ENDCHAR
STARTCHAR numbersign
ENCODING 35
SWIDTH 556 0
DWIDTH 13 0
BBX 13 18 0 0
BITMAP
0630
0660
0660
0660
0C60
0CC0
3FF8
0CC0
18C0
1980
1980
1980
FFE0
3300
3300
3300
6700
6600
ENDCHAR
STARTCHAR dollar
ENCODING 36
SWIDTH 556 0
DWIDTH 13 0
BBX 11 22 1 -2
BITMAP
0400
0400
1F00
7FC0
E4C0
C460
C460
C400
E400
7C00
1F00
07C0
05C0
0460
C460
C460
E460
64C0
7FC0
1F00
0400
0400
ENDCHAR
STARTCHAR percent
ENCODING 37
SWIDTH 889 0
DWIDTH 21 0
BBX 19 16 1 0
BITMAP
3C0400
7E0800
E70800
C31000
C31000
E72000
7E2000
3C4000
004780
008FC0
011CE0
011860
021860
021CE0
040FC0
040780
ENDCHAR
STARTCHAR ampersand
ENCODING 38
SWIDTH 666 0
DWIDTH 16 0
BBX 13 18 1 0
BITMAP
0F00
1F80
39C0
30C0
30C0
39C0
1B80
1F00
1E00
3E30
6330
C1A0
C1E0
C0E0
C0E0
E1F0
7FB8
3E18
ENDCHAR
STARTCHAR quotesingle
ENCODING 39
SWIDTH 190 0
DWIDTH 4 0
BBX 2 7 1 11
BITMAP
C0
C0
C0
C0
C0
C0
C0
ENDCHAR
STARTCHAR parenleft
ENCODING 40
SWIDTH 333 0
DWIDTH 8 0
BBX 5 23 2 -5
BITMAP
08
10
30
20
60
60
40
C0
C0
C0
C0
C0
C0
C0
C0
C0
60
60
60
20
30
10
08
ENDCHAR
STARTCHAR parenright
ENCODING 41
SWIDTH 333 0
DWIDTH 8 0
BBX 5 23 1 -5
BITMAP
80
40
40
20
30
30
30
18
18
18
18
18
18
18
18
18
30
30
30
20
40
40
80
ENDCHAR
STARTCHAR asterisk
ENCODING 42
SWIDTH 389 0
DWIDTH 9 0
BBX 7 7 1 11
BITMAP
10
FE
10
28
28
64
44
ENDCHAR
STARTCHAR plus
ENCODING 43
SWIDTH 583 0
DWIDTH 14 0
BBX 12 12 1 0
BITMAP
0600
0600
0600
0600
0600
FFF0
FFF0
0600
0600
0600
0600
0600
ENDCHAR
STARTCHAR comma
ENCODING 44
SWIDTH 277 0
DWIDTH 6 0
BBX 2 6 2 -4
BITMAP
C0
C0
40
40
40
80
ENDCHAR
STARTCHAR hyphen
ENCODING 45
SWIDTH 333 0
DWIDTH 8 0
BBX 6 2 1 6
BITMAP
FC
FC
ENDCHAR
STARTCHAR period
ENCODING 46
SWIDTH 277 0
DWIDTH 6 0
BBX 2 2 2 0
BITMAP
C0
C0
ENDCHAR
STARTCHAR slash
ENCODING 47
SWIDTH 277 0
DWIDTH 7 0
BBX 6 18 1 0
BITMAP
0C
0C
0C
0C
18
18
18
30
30
30
30
60
60
60
E0
C0
C0
C0
ENDCHAR
STARTCHAR zero
ENCODING 48
SWIDTH 556 0
DWIDTH 13 0
BBX 12 18 1 0
BITMAP
0F00
3FC0
70E0
6060
6060
C030
C030
C030
C030
C030
C030
C030
C030
6060
6060
70C0
3FC0
0F00
ENDCHAR
STARTCHAR one
ENCODING 49
SWIDTH 556 0
DWIDTH 13 0
BBX 7 18 2 0
BITMAP
06
06
1E
FE
FE
06
06
06
06
06
06
06
06
06
06
06
06
06
ENDCHAR
STARTCHAR two
ENCODING 50
SWIDTH 556 0
DWIDTH 13 0
BBX 12 18 1 0
BITMAP
1F80
3FC0
70E0
E070
C030
C030
0030
0070
00E0
03C0
0F80
1E00
7800
7000
E000
C000
FFF0
FFF0
ENDCHAR
STARTCHAR three
ENCODING 51
SWIDTH 556 0
DWIDTH 13 0
BBX 12 18 1 0
BITMAP
1F00
7FC0
60E0
C060
C060
0060
00C0
0780
07E0
00E0
0030
0030
C030
C030
E070
70E0
3FC0
1F80
ENDCHAR
STARTCHAR four
ENCODING 52
SWIDTH 556 0
DWIDTH 13 0
BBX 12 18 1 0
BITMAP
00C0
01C0
01C0
03C0
06C0
0EC0
0CC0
18C0
38C0
30C0
60C0
C0C0
FFF0
FFF0
00C0
00C0
00C0
00C0
ENDCHAR
STARTCHAR five
ENCODING 53
SWIDTH 556 0
DWIDTH 13 0
BBX 12 18 1 0
BITMAP
3FE0
7FE0
6000
6000
6000
6000
6000
6F80
7FC0
E0E0
0070
0030
0030
0030
C070
E0E0
7FC0
1F80
ENDCHAR
STARTCHAR six
ENCODING 54
SWIDTH 556 0
DWIDTH 13 0
BBX 12 18 1 0
BITMAP
0FC0
1FE0
3870
6030
6000
C000
CF80
DFC0
F0E0
E070
C030
C030
C030
C030
6060
70E0
3FC0
0F80
ENDCHAR
STARTCHAR seven
ENCODING 55
SWIDTH 556 0
DWIDTH 13 0
BBX 12 18 1 0
BITMAP
FFF0
FFF0
0060
00E0
01C0
0180
0300
0300
0600
0600
0C00
0C00
1C00
1800
1800
3800
3000
3000
ENDCHAR
STARTCHAR eight
ENCODING 56
SWIDTH 556 0
DWIDTH 13 0
BBX 12 18 1 0
BITMAP
0F80
3FC0
70E0
6060
6060
6060
70C0
3FC0
3FC0
70E0
E070
C030
C030
C030
E070
70E0
3FC0
1F80
ENDCHAR
STARTCHAR nine
ENCODING 57
SWIDTH 556 0
DWIDTH 13 0
BBX 11 18 1 0
BITMAP
1F00
3F80
71C0
E0C0
C060
C060
C060
C060
E0E0
61E0
7FE0
1E60
00E0
00C0
C0C0
E180
7F80
3E00
ENDCHAR
STARTCHAR colon
ENCODING 58
SWIDTH 277 0
DWIDTH 7 0
BBX 2 14 3 0
BITMAP
C0
C0
00
00
00
00
00
00
00
00
00
00
C0
C0
ENDCHAR
STARTCHAR semicolon
ENCODING 59
SWIDTH 277 0
DWIDTH 7 0
BBX 2 18 3 -4
BITMAP
C0
C0
00
00
00
00
00
00
00
00
00
00
C0
C0
40
40
40
80
ENDCHAR
STARTCHAR less
ENCODING 60
SWIDTH 583 0
DWIDTH 14 0
BBX 14 14 0 0
BITMAP
0004
003C
00F8
03E0
1F00
7C00
F000
F000
7C00
1F00
03E0
00F8
003C
0004
ENDCHAR
STARTCHAR equal
ENCODING 61
SWIDTH 583 0
DWIDTH 14 0
BBX 12 7 1 3
BITMAP
FFF0
FFF0
0000
0000
0000
FFF0
FFF0
ENDCHAR
STARTCHAR greater
ENCODING 62
SWIDTH 583 0
DWIDTH 14 0
BBX 14 14 0 0
BITMAP
8000
F000
7C00
1F00
03E0
00F8
003C
003C
00F8
03E0
1F00
7C00
F000
8000
ENDCHAR
STARTCHAR question
ENCODING 63
SWIDTH 556 0
DWIDTH 13 0
BBX 10 18 2 0
BITMAP
1F00
7F80
61C0
C0C0
C0C0
00C0
01C0
0380
0300
0600
0E00
0C00
0C00
0C00
0000
0000
0C00
0C00
ENDCHAR
STARTCHAR at
ENCODING 64
SWIDTH 1015 0
DWIDTH 24 0
BBX 19 18 3 0
BITMAP
01FC00
0E0700
180180
3000C0
60E6C0
619C60
C30C60
C70C60
C60C60
C60860
C61840
C618C0
633980
61C700
300000
180080
0E0380
03FC00
ENDCHAR
STARTCHAR A
ENCODING 65
SWIDTH 666 0
DWIDTH 16 0
BBX 15 17 1 0
BITMAP
0380
0780
0780
0FC0
0CC0
0CC0
1CE0
1860
1870
3070
3FF0
7FF8
6018
6018
E01C
C00C
C00E
ENDCHAR
STARTCHAR B
ENCODING 66
SWIDTH 666 0
DWIDTH 16 0
BBX 13 18 2 0
BITMAP
FFC0
FFE0
C070
C030
C030
C030
C030
C060
FFC0
FFF0
C030
C018
C018
C018
C018
C070
FFF0
FFC0
ENDCHAR
STARTCHAR C
ENCODING 67
SWIDTH 722 0
DWIDTH 17 0
BBX 15 18 1 0
BITMAP
07E0
1FF8
383C
700C
600E
E006
C000
C000
C000
C000
C000
C006
E006
600C
701C
3838
1FF0
07E0
ENDCHAR
STARTCHAR D
ENCODING 68
SWIDTH 722 0
DWIDTH 17 0
BBX 14 18 2 0
BITMAP
FFC0
FFE0
C070
C038
C018
C01C
C00C
C00C
C00C
C00C
C00C
C00C
C018
C018
C038
C070
FFE0
FF80
ENDCHAR
STARTCHAR E
ENCODING 69
SWIDTH 666 0
DWIDTH 16 0
BBX 13 18 2 0
BITMAP
FFF8
FFF8
C000
C000
C000
C000
C000
C000
FFF0
FFF0
C000
C000
C000
C000
C000
C000
FFF8
FFF8
ENDCHAR
STARTCHAR F
ENCODING 70
SWIDTH 610 0
DWIDTH 15 0
BBX 12 18 2 0
BITMAP
FFF0
FFF0
C000
C000
C000
C000
C000
C000
FFE0
FFE0
C000
C000
C000
C000
C000
C000
C000
C000
ENDCHAR
STARTCHAR G
ENCODING 71
SWIDTH 777 0
DWIDTH 19 0
BBX 16 18 1 0
BITMAP
07F0
1FFC
3C1E
3006
6007
6003
C000
C000
C000
C07F
C07F
C003
E003
6007
7007
381F
1FFB
07E1
ENDCHAR
STARTCHAR H
ENCODING 72
SWIDTH 722 0
DWIDTH 18 0
BBX 14 18 2 0
BITMAP
C00C
C00C
C00C
C00C
C00C
C00C
C00C
FFFC
FFFC
C00C
C00C
C00C
C00C
C00C
C00C
C00C
C00C
C00C
ENDCHAR
STARTCHAR I
ENCODING 73
SWIDTH 277 0
DWIDTH 7 0
BBX 2 17 3 0
BITMAP
C0
C0
C0
C0
C0
C0
C0
C0
C0
C0
C0
C0
C0
C0
C0
C0
C0
ENDCHAR
STARTCHAR J
ENCODING 74
SWIDTH 500 0
DWIDTH 12 0
BBX 10 18 0 0
BITMAP
00C0
00C0
00C0
00C0
00C0
00C0
00C0
00C0
00C0
00C0
00C0
00C0
C0C0
C0C0
C0C0
E180
7F80
3E00
ENDCHAR
STARTCHAR K
ENCODING 75
SWIDTH 666 0
DWIDTH 16 0
BBX 14 18 2 0
BITMAP
C01C
C038
C070
C0E0
C1C0
C380
C600
CC00
DE00
F700
E300
C180
C1C0
C0C0
C060
C030
C030
C018
ENDCHAR
STARTCHAR L
ENCODING 76
SWIDTH 556 0
DWIDTH 13 0
BBX 11 18 2 0
BITMAP
C000
C000
C000
C000
C000
C000
C000
C000
C000
C000
C000
C000
C000
C000
C000
C000
FFE0
FFE0
ENDCHAR
STARTCHAR M
ENCODING 77
SWIDTH 833 0
DWIDTH 21 0
BBX 17 18 2 0
BITMAP
E00380
F00780
F00780
D00580
D80D80
D80D80
C80980
CC1980
CC1980
C63180
C63180
C63180
C36180
C36180
C36180
C1C180
C1C180
C0C180
ENDCHAR
STARTCHAR N
ENCODING 78
SWIDTH 722 0
DWIDTH 18 0
BBX 14 18 2 0
BITMAP
E00C
F00C
F00C
D80C
D80C
CC0C
CE0C
C60C
C30C
C30C
C18C
C0CC
C0CC
C06C
C07C
C03C
C01C
C01C
ENDCHAR
STARTCHAR O
ENCODING 79
SWIDTH 777 0
DWIDTH 19 0
BBX 17 18 1 0
BITMAP
07F000
1FFC00
3C1E00
300700
600300
600380
C00180
C00180
C00180
C00180
C00180
C00180
E00300
600300
700600
3C1E00
1FF800
07F000
ENDCHAR
STARTCHAR P
ENCODING 80
SWIDTH 666 0
DWIDTH 16 0
BBX 13 18 2 0
BITMAP
FFE0
FFF0
C038
C018
C018
C018
C018
C030
FFF0
FFE0
C000
C000
C000
C000
C000
C000
C000
C000
ENDCHAR
STARTCHAR Q
ENCODING 81
SWIDTH 777 0
DWIDTH 19 0
BBX 17 19 1 -1
BITMAP
07F000
1FFC00
3C1E00
300700
600300
600380
C00180
C00180
C00180
C00180
C00180
C00180
E00300
603300
703F00
3C1E00
1FFF00
07F380
000100
ENDCHAR
STARTCHAR R
ENCODING 82
SWIDTH 722 0
DWIDTH 17 0
BBX 14 18 2 0
BITMAP
FFE0
FFF0
C038
C018
C018
C018
C018
C030
FFF0
FFF0
C038
C018
C018
C018
C018
C018
C018
C01C
ENDCHAR
STARTCHAR S
ENCODING 83
SWIDTH 666 0
DWIDTH 16 0
BBX 14 18 1 0
BITMAP
0FC0
3FF0
7038
C01C
C00C
C00C
E000
7C00
3FE0
03F8
0018
000C
C00C
C00C
E01C
7038
3FF0
0FC0
ENDCHAR
STARTCHAR T
ENCODING 84
SWIDTH 610 0
DWIDTH 14 0
BBX 14 18 0 0
BITMAP
FFFC
FFFC
0300
0300
0300
0300
0300
0300
0300
0300
0300
0300
0300
0300
0300
0300
0300
0300
ENDCHAR
STARTCHAR U
ENCODING 85
SWIDTH 722 0
DWIDTH 18 0
BBX 14 18 2 0
BITMAP
C00C
C00C
C00C
C00C
C00C
C00C
C00C
C00C
C00C
C00C
C00C
C00C
C00C
C01C
6018
7038
3FF0
0FC0
ENDCHAR
STARTCHAR V
ENCODING 86
SWIDTH 666 0
DWIDTH 18 0
BBX 15 18 2 0
BITMAP
C006
C006
E00E
600C
600C
3018
3018
3018
1830
1830
1830
0C60
0C60
0EC0
06C0
06C0
0380
0380
ENDCHAR
STARTCHAR W
ENCODING 87
SWIDTH 943 0
DWIDTH 24 0
BBX 21 18 2 0
BITMAP
C07018
C07018
C07018
C0D818
60D830
60D830
60D830
618C70
318C60
318C60
318C60
3B06E0
1B06C0
1B06C0
1B06C0
0E0380
0E0380
0E0380
ENDCHAR
STARTCHAR X
ENCODING 88
SWIDTH 666 0
DWIDTH 16 0
BBX 14 18 2 0
BITMAP
6018
3018
3030
1860
1C60
0CC0
0780
0780
0300
0300
0780
0CC0
0CC0
1860
3870
3030
6018
E01C
ENDCHAR
STARTCHAR Y
ENCODING 89
SWIDTH 666 0
DWIDTH 19 0
BBX 14 18 3 0
BITMAP
C00C
E01C
6018
3030
3030
1860
1CE0
0CC0
0780
0780
0300
0300
0300
0300
0300
0300
0300
0300
ENDCHAR
STARTCHAR Z
ENCODING 90
SWIDTH 610 0
DWIDTH 16 0
BBX 14 18 1 0
BITMAP
7FFC
7FFC
001C
0038
0030
0060
00C0
0180
0380
0700
0600
0C00
1800
3000
7000
E000
FFFC
FFFC
ENDCHAR
STARTCHAR bracketleft
ENCODING 91
SWIDTH 277 0
DWIDTH 7 0
BBX 4 23 2 -5
BITMAP
F0
F0
C0
C0
C0
C0
C0
C0
C0
C0
C0
C0
C0
C0
C0
C0
C0
C0
C0
C0
C0
F0
F0
ENDCHAR
STARTCHAR backslash
ENCODING 92
SWIDTH 277 0
DWIDTH 7 0
BBX 9 18 -1 0
BITMAP
C000
6000
6000
7000
3000
3000
1800
1800
1C00
0C00
0C00
0600
0600
0300
0300
0300
0180
0180
ENDCHAR
STARTCHAR bracketright
ENCODING 93
SWIDTH 277 0
DWIDTH 6 0
BBX 4 23 0 -5
BITMAP
F0
F0
30
30
30
30
30
30
30
30
30
30
30
30
30
30
30
30
30
30
30
F0
F0
ENDCHAR
STARTCHAR asciicircum
ENCODING 94
SWIDTH 469 0
DWIDTH 11 0
BBX 9 10 2 7
BITMAP
1C00
1C00
3400
3600
3600
6300
6300
C100
C180
C180
ENDCHAR
STARTCHAR underscore
ENCODING 95
SWIDTH 556 0
DWIDTH 13 0
BBX 13 1 0 -3
BITMAP
FFF8
ENDCHAR
STARTCHAR grave
ENCODING 96
SWIDTH 333 0
DWIDTH 8 0
BBX 4 4 1 14
BITMAP
C0
60
60
30
ENDCHAR
STARTCHAR a
ENCODING 97
SWIDTH 556 0
DWIDTH 13 0
BBX 11 14 1 0
BITMAP
1F00
3F80
71C0
60C0
00C0
07C0
3FC0
78C0
E0C0
C0C0
C1C0
E3C0
7EE0
3C60
ENDCHAR
STARTCHAR b
ENCODING 98
SWIDTH 556 0
DWIDTH 13 0
BBX 11 18 1 0
BITMAP
C000
C000
C000
C000
CF00
FF80
F1C0
E0E0
C060
C060
C060
C060
C060
C060
E0C0
F1C0
FF80
CF00
ENDCHAR
STARTCHAR c
ENCODING 99
SWIDTH 500 0
DWIDTH 13 0
BBX 11 14 1 0
BITMAP
1F00
3FC0
70C0
60E0
C060
C000
C000
C000
C000
C060
60E0
71C0
3FC0
1F00
ENDCHAR
STARTCHAR d
ENCODING 100
SWIDTH 556 0
DWIDTH 14 0
BBX 11 18 1 0
BITMAP
0060
0060
0060
0060
1E60
3FE0
71E0
60E0
C060
C060
C060
C060
C060
C060
60E0
71E0
3F60
1E60
ENDCHAR
STARTCHAR e
ENCODING 101
SWIDTH 556 0
DWIDTH 13 0
BBX 11 14 1 0
BITMAP
1F00
3F80
71C0
60E0
C060
C060
FFE0
FFE0
C000
C000
6060
70C0
3FC0
1F00
ENDCHAR
STARTCHAR f
ENCODING 102
SWIDTH 277 0
DWIDTH 6 0
BBX 6 18 0 0
BITMAP
1C
3C
30
30
FC
FC
30
30
30
30
30
30
30
30
30
30
30
30
ENDCHAR
STARTCHAR g
ENCODING 103
SWIDTH 556 0
DWIDTH 14 0
BBX 11 19 1 -5
BITMAP
1E60
3FE0
71E0
60E0
C060
C060
C060
C060
C060
C060
E0E0
71E0
3FE0
1E60
0060
C0E0
E1C0
7F80
3F00
ENDCHAR
STARTCHAR h
ENCODING 104
SWIDTH 556 0
DWIDTH 14 0
BBX 10 18 2 0
BITMAP
C000
C000
C000
C000
CF00
FF80
F1C0
E0C0
C0C0
C0C0
C0C0
C0C0
C0C0
C0C0
C0C0
C0C0
C0C0
C0C0
ENDCHAR
STARTCHAR i
ENCODING 105
SWIDTH 222 0
DWIDTH 6 0
BBX 2 18 2 0
BITMAP
C0
C0
00
00
C0
C0
C0
C0
C0
C0
C0
C0
C0
C0
C0
C0
C0
C0
ENDCHAR
STARTCHAR j
ENCODING 106
SWIDTH 222 0
DWIDTH 5 0
BBX 4 22 0 -5
BITMAP
30
30
00
00
30
30
30
30
30
30
30
30
30
30
30
30
30
30
30
30
F0
E0
ENDCHAR
STARTCHAR k
ENCODING 107
SWIDTH 500 0
DWIDTH 12 0
BBX 10 18 2 0
BITMAP
C000
C000
C000
C000
C1C0
C380
C700
CE00
CC00
D800
FC00
EC00
C600
C600
C300
C300
C180
C1C0
ENDCHAR
STARTCHAR l
ENCODING 108
SWIDTH 222 0
DWIDTH 6 0
BBX 2 18 2 0
BITMAP
C0
C0
C0
C0
C0
C0
C0
C0
C0
C0
C0
C0
C0
C0
C0
C0
C0
C0
ENDCHAR
STARTCHAR m
ENCODING 109
SWIDTH 833 0
DWIDTH 20 0
BBX 16 14 2 0
BITMAP
CE3C
DF7E
F3C7
E183
C183
C183
C183
C183
C183
C183
C183
C183
C183
C183
ENDCHAR
STARTCHAR n
ENCODING 110
SWIDTH 556 0
DWIDTH 14 0
BBX 10 14 2 0
BITMAP
CF00
DF80
F1C0
E0C0
C0C0
C0C0
C0C0
C0C0
C0C0
C0C0
C0C0
C0C0
C0C0
C0C0
ENDCHAR
STARTCHAR o
ENCODING 111
SWIDTH 556 0
DWIDTH 14 0
BBX 12 14 1 0
BITMAP
0F80
3FC0
70E0
6060
C030
C030
C030
C030
C030
C030
6060
70E0
3FC0
1F80
ENDCHAR
STARTCHAR p
ENCODING 112
SWIDTH 556 0
DWIDTH 13 0
BBX 11 19 1 -5
BITMAP
CF00
DF80
F1C0
E0E0
C060
C060
C060
C060
C060
C060
E0C0
F1C0
FF80
CF00
C000
C000
C000
C000
C000
ENDCHAR
STARTCHAR q
ENCODING 113
SWIDTH 556 0
DWIDTH 14 0
BBX 11 19 1 -5
BITMAP
1E60
3FE0
71E0
60E0
C060
C060
C060
C060
C060
C060
E0E0
71E0
3FE0
1E60
0060
0060
0060
0060
0060
ENDCHAR
STARTCHAR r
ENCODING 114
SWIDTH 333 0
DWIDTH 8 0
BBX 6 14 2 0
BITMAP
CC
FC
F0
E0
C0
C0
C0
C0
C0
C0
C0
C0
C0
C0
ENDCHAR
STARTCHAR s
ENCODING 115
SWIDTH 500 0
DWIDTH 12 0
BBX 10 14 1 0
BITMAP
3F00
7F80
E1C0
C0C0
C000
F000
7F00
1F80
01C0
00C0
C0C0
E1C0
7F80
3F00
ENDCHAR
STARTCHAR t
ENCODING 116
SWIDTH 277 0
DWIDTH 7 0
BBX 6 17 0 0
BITMAP
30
30
30
FC
FC
30
30
30
30
30
30
30
30
30
30
3C
1C
ENDCHAR
STARTCHAR u
ENCODING 117
SWIDTH 556 0
DWIDTH 14 0
BBX 10 14 2 0
BITMAP
C0C0
C0C0
C0C0
C0C0
C0C0
C0C0
C0C0
C0C0
C0C0
C0C0
C1C0
E3C0
7EC0
3CC0
ENDCHAR
STARTCHAR v
ENCODING 118
SWIDTH 500 0
DWIDTH 13 0
BBX 9 14 2 0
BITMAP
C180
C180
C180
C180
6300
6300
6300
6300
3600
3600
3600
3E00
1C00
1C00
ENDCHAR
STARTCHAR w
ENCODING 119
SWIDTH 722 0
DWIDTH 19 0
BBX 17 14 1 0
BITMAP
C1C180
C1C180
C1C180
E36380
636300
636300
636300
763600
363600
363600
363600
1C1C00
1C1C00
1C1C00
ENDCHAR
STARTCHAR x
ENCODING 120
SWIDTH 500 0
DWIDTH 12 0
BBX 11 14 0 0
BITMAP
6060
70E0
39C0
3980
1F80
0F00
0E00
0F00
0F00
1B80
3980
31C0
70E0
E060
ENDCHAR
STARTCHAR y
ENCODING 121
SWIDTH 500 0
DWIDTH 13 0
BBX 11 19 1 -5
BITMAP
C060
C060
60C0
60C0
60C0
3180
3180
3180
1B80
1B00
1B00
1F00
0E00
0E00
0C00
0C00
1C00
7800
7000
ENDCHAR
STARTCHAR z
ENCODING 122
SWIDTH 500 0
DWIDTH 12 0
BBX 10 14 1 0
BITMAP
7FC0
7FC0
01C0
0380
0300
0600
0E00
0C00
1800
3000
7000
6000
FFC0
FFC0
ENDCHAR
STARTCHAR braceleft
ENCODING 123
SWIDTH 333 0
DWIDTH 8 0
BBX 8 23 -1 -5
BITMAP
07
0F
1C
18
18
18
18
18
18
38
F0
C0
F0
38
18
18
18
18
18
18
1C
0F
03
ENDCHAR
STARTCHAR bar
ENCODING 124
SWIDTH 259 0
DWIDTH 6 0
BBX 2 18 2 0
BITMAP
C0
C0
C0
C0
C0
C0
C0
C0
C0
C0
C0
C0
C0
C0
C0
C0
C0
C0
ENDCHAR
STARTCHAR braceright
ENCODING 125
SWIDTH 333 0
DWIDTH 8 0
BBX 8 23 0 -5
BITMAP
C0
F0
30
18
18
18
18
18
18
0C
0F
03
0F
0C
18
18
18
18
18
18
30
F0
C0
ENDCHAR
STARTCHAR asciitilde
ENCODING 126
SWIDTH 583 0
DWIDTH 14 0
BBX 14 5 0 4
BITMAP
3804
7E04
4788
81F8
8070
ENDCHAR
STARTCHAR degree
ENCODING 176
SWIDTH 399 0
DWIDTH 9 0
BBX 7 7 1 11
BITMAP
38
44
82
82
82
44
38
ENDCHAR
STARTCHAR ordmasculine
ENCODING 186
SWIDTH 365 0
DWIDTH 9 0
BBX 8 8 0 10
BITMAP
3C
66
C3
C3
C3
C3
66
3C
ENDCHAR
ENDFONT
