STARTFONT 2.1
FONT -FontForge-Helvetica-Bold-R-Normal--96-920-75-75-P-558-ISO10646-1
SIZE 92 75 75
FONTBOUNDINGBOX 54 72 2 -1
COMMENT "Generated by fontforge, http://fontforge.sourceforge.net"
COMMENT "(c) 1990-2006 Apple Computer Inc. (c) 1981 Linotype AG (c) 1990-91 Type Solutions Inc."
STARTPROPERTIES 41
FOUNDRY "FontForge"
FAMILY_NAME "Helvetica"
WEIGHT_NAME "Bold"
SLANT "R"
SETWIDTH_NAME "Normal"
ADD_STYLE_NAME ""
PIXEL_SIZE 96
POINT_SIZE 920
RESOLUTION_X 75
RESOLUTION_Y 75
SPACING "P"
AVERAGE_WIDTH 558
CHARSET_REGISTRY "ISO10646"
CHARSET_ENCODING "1"
FONTNAME_REGISTRY ""
CHARSET_COLLECTIONS "ISO8859-2 ISO8859-5 ISO8859-7 ISO8859-9 ISO8859-4 ISO10646-1"
FONT_NAME "Helvetica-Bold"
FACE_NAME "Helvetica Bold"
COPYRIGHT "(c) 1990-2006 Apple Computer Inc. (c) 1981 Linotype AG (c) 1990-91 Type Solutions Inc."
FONT_VERSION "17.0d1e1"
FONT_ASCENT 77
FONT_DESCENT 19
UNDERLINE_POSITION -10
UNDERLINE_THICKNESS 5
X_HEIGHT 50
CAP_HEIGHT 69
DEFAULT_CHAR 1
RAW_ASCENT 799
RAW_DESCENT 200
NORM_SPACE 27
RELATIVE_WEIGHT 70
RELATIVE_SETWIDTH 50
SUPERSCRIPT_X 0
SUPERSCRIPT_Y 45
SUPERSCRIPT_SIZE 62
SUBSCRIPT_X 0
SUBSCRIPT_Y 13
SUBSCRIPT_SIZE 62
FIGURE_WIDTH 53
AVG_LOWERCASE_WIDTH 557
AVG_UPPERCASE_WIDTH 706
ENDPROPERTIES
CHARS 13
STARTCHAR zero
ENCODING 48
SWIDTH 556 0
DWIDTH 53 0
BBX 46 69 4 -1
BITMAP
0003FFFF0000
001FFFFFC000
003FFFFFF000
00FFFFFFF800
01FFFFFFFC00
03FFFFFFFE00
03FFFFFFFF00
07FFFFFFFF00
0FFFFFFFFF80
0FFFFFFFFFC0
0FFFFFFFFFE0
1FFFC00FFFE0
1FFF800FFFE0
3FFF0003FFF0
3FFF0003FFF0
7FFE0003FFF0
7FFE0001FFF8
7FFC0001FFF8
7FFC0001FFF8
FFFC0001FFF8
FFFC0001FFF8
FFFC0000FFFC
FFF80000FFFC
FFF80000FFFC
FFF80000FFFC
FFF80000FFFC
FFF80000FFFC
FFF80000FFFC
FFF80000FFFC
FFF80000FFFC
FFF80000FFFC
FFF80000FFFC
FFF80000FFFC
FFF80000FFFC
FFF80000FFFC
FFF80000FFFC
FFF80000FFFC
FFF80000FFFC
FFF80000FFFC
FFF80000FFFC
FFF80000FFFC
FFF80000FFFC
FFF80000FFFC
FFF80000FFFC
FFF80000FFFC
FFF80000FFFC
FFF80000FFFC
FFFC0000FFFC
FFFC0001FFF8
7FFC0001FFF8
7FFC0001FFF8
7FFE0001FFF8
7FFE0003FFF0
3FFF0003FFF0
3FFF0003FFF0
1FFF8007FFE0
1FFFC00FFFE0
1FFFE01FFFE0
0FFFFFFFFFC0
0FFFFFFFFF80
0FFFFFFFFF80
07FFFFFFFF00
03FFFFFFFE00
01FFFFFFFC00
00FFFFFFF800
007FFFFFF000
001FFFFFE000
0007FFFF0000
0000FFF80000
ENDCHAR
STARTCHAR one
ENCODING 49
SWIDTH 556 0
DWIDTH 53 0
BBX 30 68 7 0
BITMAP
00001FFC
00003FFC
00003FFC
00003FFC
00007FFC
00007FFC
0000FFFC
0000FFFC
0003FFFC
000FFFFC
003FFFFC
007FFFFC
FFFFFFFC
FFFFFFFC
FFFFFFFC
FFFFFFFC
FFFFFFFC
FFFFFFFC
FFFFFFFC
FFFFFFFC
FFFFFFFC
0000FFFC
0000FFFC
0000FFFC
0000FFFC
0000FFFC
0000FFFC
0000FFFC
0000FFFC
0000FFFC
0000FFFC
0000FFFC
0000FFFC
0000FFFC
0000FFFC
0000FFFC
0000FFFC
0000FFFC
0000FFFC
0000FFFC
0000FFFC
0000FFFC
0000FFFC
0000FFFC
0000FFFC
0000FFFC
0000FFFC
0000FFFC
0000FFFC
0000FFFC
0000FFFC
0000FFFC
0000FFFC
0000FFFC
0000FFFC
0000FFFC
0000FFFC
0000FFFC
0000FFFC
0000FFFC
0000FFFC
0000FFFC
0000FFFC
0000FFFC
0000FFFC
0000FFFC
0000FFFC
0000FFFC
ENDCHAR
STARTCHAR two
ENCODING 50
SWIDTH 556 0
DWIDTH 53 0
BBX 46 68 4 0
BITMAP
0003FFFF0000
000FFFFFC000
003FFFFFF000
00FFFFFFF800
01FFFFFFFE00
03FFFFFFFE00
07FFFFFFFF00
07FFFFFFFFC0
0FFFFFFFFFE0
1FFFFFFFFFE0
1FFFFFFFFFF0
3FFFFFFFFFF0
3FFF8007FFF8
3FFF0003FFF8
7FFE0003FFF8
7FFC0001FFF8
7FFC0000FFFC
7FFC0000FFFC
7FFC0000FFFC
7FFC0000FFFC
FFF80000FFFC
FFF80000FFFC
FFF80000FFFC
00000000FFFC
00000000FFFC
00000001FFFC
00000001FFFC
00000003FFF8
00000003FFF8
00000007FFF8
0000000FFFF0
0000001FFFF0
0000003FFFE0
000000FFFFC0
000001FFFF80
000003FFFF80
000007FFFF00
00001FFFFC00
00003FFFFC00
0000FFFFF000
0000FFFFE000
0003FFFFC000
000FFFFF8000
001FFFFE0000
003FFFFC0000
007FFFF00000
00FFFFE00000
01FFFFC00000
03FFFF000000
03FFFE000000
07FFFC000000
0FFFF0000000
1FFFE0000000
1FFFC0000000
3FFF80000000
3FFF00000000
3FFFFFFFFFFC
7FFFFFFFFFFC
7FFFFFFFFFFC
7FFFFFFFFFFC
FFFFFFFFFFFC
FFFFFFFFFFFC
FFFFFFFFFFFC
FFFFFFFFFFFC
FFFFFFFFFFFC
FFFFFFFFFFFC
FFFFFFFFFFFC
FFFFFFFFFFFC
ENDCHAR
STARTCHAR three
ENCODING 51
SWIDTH 556 0
DWIDTH 53 0
BBX 46 69 4 -1
BITMAP
0003FFFF0000
000FFFFFC000
003FFFFFF000
00FFFFFFF800
01FFFFFFFC00
03FFFFFFFE00
03FFFFFFFF00
07FFFFFFFF80
0FFFFFFFFFC0
1FFFFFFFFFC0
1FFFFFFFFFE0
3FFF801FFFE0
3FFF0007FFF0
3FFF0007FFF0
3FFE0003FFF0
7FFC0003FFF0
7FFC0003FFF0
7FFC0001FFF0
7FFC0001FFF0
7FFC0001FFF0
7FFC0001FFF0
00000001FFF0
00000001FFF0
00000003FFE0
00000007FFE0
00000007FFE0
0000001FFFC0
0000003FFF80
00007FFFFF80
00007FFFFE00
00007FFFFC00
00007FFFF000
00007FFFFE00
00007FFFFF00
00007FFFFF80
00007FFFFF80
00007FFFFFE0
00007FFFFFF0
00007FFFFFF0
0000001FFFF8
00000003FFFC
00000001FFFC
00000001FFFC
00000000FFFC
00000000FFFC
00000000FFFC
00000000FFFC
FFF80000FFFC
FFF80000FFFC
FFF80000FFFC
FFF80000FFFC
FFF80000FFFC
FFF80000FFFC
FFFC0000FFFC
7FFE0000FFFC
7FFF0001FFF8
7FFF0003FFF8
7FFFC03FFFF0
3FFFFFFFFFE0
1FFFFFFFFFE0
1FFFFFFFFFE0
0FFFFFFFFFC0
07FFFFFFFF80
03FFFFFFFF80
01FFFFFFFE00
00FFFFFFF800
003FFFFFF000
000FFFFF8000
0000FFFC0000
ENDCHAR
STARTCHAR four
ENCODING 52
SWIDTH 556 0
DWIDTH 53 0
BBX 48 68 3 0
BITMAP
0000007FFF00
0000007FFF00
000000FFFF00
000001FFFF00
000001FFFF00
000003FFFF00
000007FFFF00
000007FFFF00
00000FFFFF00
00000FFFFF00
00001FFFFF00
00003FFFFF00
00003FFFFF00
00007FFFFF00
00007FFFFF00
0000FFDFFF00
0001FF9FFF00
0001FF9FFF00
0003FF1FFF00
0003FF1FFF00
0007FE1FFF00
000FFC1FFF00
000FFC1FFF00
001FF81FFF00
001FF81FFF00
003FF01FFF00
007FF01FFF00
00FFE01FFF00
00FFE01FFF00
01FFC01FFF00
01FFC01FFF00
03FF801FFF00
07FF001FFF00
07FF001FFF00
0FFE001FFF00
0FFE001FFF00
1FFC001FFF00
1FFC001FFF00
3FF8001FFF00
7FF0001FFF00
7FF0001FFF00
7FE0001FFF00
FFFFFFFFFFFF
FFFFFFFFFFFF
FFFFFFFFFFFF
FFFFFFFFFFFF
FFFFFFFFFFFF
FFFFFFFFFFFF
FFFFFFFFFFFF
FFFFFFFFFFFF
FFFFFFFFFFFF
FFFFFFFFFFFF
FFFFFFFFFFFF
0000001FFF00
0000001FFF00
0000001FFF00
0000001FFF00
0000001FFF00
0000001FFF00
0000001FFF00
0000001FFF00
0000001FFF00
0000001FFF00
0000001FFF00
0000001FFF00
0000001FFF00
0000001FFF00
0000001FFF00
ENDCHAR
STARTCHAR five
ENCODING 53
SWIDTH 556 0
DWIDTH 53 0
BBX 46 69 4 -1
BITMAP
03FFFFFFFFF0
03FFFFFFFFF0
03FFFFFFFFF0
03FFFFFFFFF0
03FFFFFFFFF0
03FFFFFFFFF0
03FFFFFFFFF0
03FFFFFFFFF0
03FFFFFFFFF0
07FFFFFFFFF0
07FFFFFFFFF0
07FFFFFFFFF0
07FF00000000
07FF00000000
07FF00000000
0FFE00000000
0FFE00000000
0FFE00000000
0FFE00000000
0FFE00000000
0FFE00000000
0FFE00000000
1FFC00000000
1FFC00000000
1FFC1FFFC000
1FFCFFFFF000
1FFFFFFFFC00
1FFFFFFFFE00
3FFFFFFFFF00
3FFFFFFFFF00
3FFFFFFFFFC0
3FFFFFFFFFE0
3FFFFFFFFFE0
3FFFFFFFFFF0
3FFFC1FFFFF8
3FFF800FFFF8
7FFE0007FFF8
7FFC0003FFF8
00000001FFFC
00000001FFFC
00000001FFFC
00000000FFFC
00000000FFFC
00000000FFFC
00000000FFFC
00000000FFFC
00000000FFFC
00000000FFFC
00000000FFFC
FFF80000FFFC
FFF80000FFFC
FFFC0000FFFC
FFFC0000FFF8
FFFC0001FFF8
7FFE0001FFF8
7FFF0003FFF8
7FFF0007FFF0
3FFFC01FFFF0
3FFFFFFFFFE0
3FFFFFFFFFC0
1FFFFFFFFFC0
0FFFFFFFFF80
07FFFFFFFF80
03FFFFFFFE00
01FFFFFFFC00
00FFFFFFF000
003FFFFFE000
000FFFFF8000
0001FFF80000
ENDCHAR
STARTCHAR six
ENCODING 54
SWIDTH 556 0
DWIDTH 53 0
BBX 46 69 4 -1
BITMAP
0001FFFF8000
0007FFFFE000
000FFFFFF800
003FFFFFFC00
007FFFFFFE00
00FFFFFFFF80
01FFFFFFFF80
03FFFFFFFFC0
03FFFFFFFFE0
07FFFFFFFFE0
0FFFFFFFFFF0
0FFFE007FFF0
1FFF8003FFF8
1FFF8003FFF8
1FFF0001FFF8
3FFE0000FFF8
3FFE0000FFF8
3FFE00000000
7FFC00000000
7FFC00000000
7FFC00000000
7FFC00000000
FFF800000000
FFF800000000
FFF81FFF8000
FFF83FFFE000
FFF9FFFFF800
FFFBFFFFFC00
FFFFFFFFFE00
FFFFFFFFFF00
FFFFFFFFFF80
FFFFFFFFFFC0
FFFFFFFFFFE0
FFFFFFFFFFE0
FFFFFFFFFFF0
FFFFC00FFFF0
FFFF8007FFF8
FFFE0003FFF8
FFFE0001FFF8
FFFC0001FFFC
FFFC0000FFFC
FFFC0000FFFC
FFF80000FFFC
FFF800007FFC
FFF800007FFC
FFF800007FFC
FFF800007FFC
FFF800007FFC
FFF800007FFC
7FF80000FFFC
7FF80000FFFC
7FFC0000FFFC
7FFC0000FFFC
3FFE0001FFF8
3FFE0001FFF8
1FFF0003FFF8
1FFF8007FFF0
1FFFE00FFFF0
0FFFFFFFFFE0
0FFFFFFFFFC0
03FFFFFFFFC0
03FFFFFFFF80
01FFFFFFFF80
00FFFFFFFF00
007FFFFFFC00
003FFFFFF800
000FFFFFF000
0003FFFFC000
00007FFE0000
ENDCHAR
STARTCHAR seven
ENCODING 55
SWIDTH 556 0
DWIDTH 53 0
BBX 48 68 3 0
BITMAP
FFFFFFFFFFFF
FFFFFFFFFFFF
FFFFFFFFFFFF
FFFFFFFFFFFF
FFFFFFFFFFFF
FFFFFFFFFFFF
FFFFFFFFFFFF
FFFFFFFFFFFF
FFFFFFFFFFFF
FFFFFFFFFFFF
FFFFFFFFFFFF
FFFFFFFFFFFF
000000007FFC
00000000FFF8
00000001FFF0
00000001FFF0
00000003FFE0
00000007FFC0
0000000FFF80
0000000FFF80
0000001FFF00
0000003FFE00
0000003FFE00
0000007FFC00
000000FFF800
000000FFF800
000001FFF000
000003FFE000
000003FFE000
000007FFC000
000007FFC000
00000FFF8000
00001FFF0000
00003FFF0000
00003FFE0000
00007FFE0000
00007FFE0000
0000FFFC0000
0000FFFC0000
0000FFFC0000
0001FFF80000
0001FFF00000
0003FFF00000
0003FFF00000
0003FFF00000
0007FFE00000
0007FFE00000
0007FFE00000
000FFFC00000
000FFFC00000
000FFFC00000
000FFFC00000
001FFF800000
001FFF800000
001FFF800000
001FFF800000
003FFF000000
003FFF000000
003FFF000000
003FFF000000
003FFF000000
007FFE000000
007FFE000000
007FFE000000
007FFE000000
007FFE000000
007FFE000000
007FFE000000
ENDCHAR
STARTCHAR eight
ENCODING 56
SWIDTH 556 0
DWIDTH 53 0
BBX 47 69 4 -1
BITMAP
0003FFFF0000
000FFFFFE000
003FFFFFF000
007FFFFFFC00
00FFFFFFFE00
01FFFFFFFF00
03FFFFFFFF80
07FFFFFFFFC0
0FFFFFFFFFC0
0FFFFFFFFFE0
1FFFFFFFFFE0
1FFFC007FFF0
1FFF8003FFF0
3FFF0003FFF0
3FFE0001FFF0
3FFE0001FFF8
3FFE0000FFF8
3FFE0000FFF8
3FFE0000FFF8
3FFE0000FFF8
3FFE0001FFF0
3FFE0001FFF0
1FFF0001FFF0
1FFF0003FFE0
0FFF8003FFE0
0FFF8007FFC0
07FFF01FFFC0
07FFFFFFFF80
03FFFFFFFF00
01FFFFFFFC00
00FFFFFFF800
003FFFFFF800
01FFFFFFFE00
03FFFFFFFF00
07FFFFFFFF80
0FFFFFFFFFC0
1FFFFFFFFFE0
3FFFFFFFFFE0
3FFFC00FFFF0
7FFF0003FFF8
7FFF0003FFF8
7FFE0000FFFC
FFFC0000FFFC
FFFC0000FFFC
FFFC0000FFFC
FFFC00007FFE
FFFC00007FFE
FFF800007FFE
FFF800007FFE
FFF800007FFE
FFFC00007FFE
FFFC0000FFFE
FFFC0000FFFC
FFFE0001FFFC
FFFE0001FFFC
7FFF0003FFF8
7FFF0003FFF8
7FFFE00FFFF8
7FFFFFFFFFF0
3FFFFFFFFFE0
1FFFFFFFFFE0
0FFFFFFFFFC0
0FFFFFFFFF80
07FFFFFFFF00
01FFFFFFFE00
00FFFFFFF800
003FFFFFF000
000FFFFFC000
0001FFFC0000
ENDCHAR
STARTCHAR nine
ENCODING 57
SWIDTH 556 0
DWIDTH 53 0
BBX 47 69 3 -1
BITMAP
0003FFFF0000
000FFFFFC000
003FFFFFF000
007FFFFFF800
00FFFFFFFE00
01FFFFFFFF00
01FFFFFFFF80
07FFFFFFFF80
0FFFFFFFFFC0
0FFFFFFFFFE0
0FFFFFFFFFF0
1FFFE007FFF0
1FFFC003FFF8
3FFF0001FFF8
3FFF0001FFF8
7FFE0000FFF8
7FFE00007FFC
7FFE00007FFC
7FFE00007FFC
FFFC00003FFE
FFFC00003FFE
FFFC00003FFE
FFFC00003FFE
FFFC00003FFE
FFFC00003FFE
FFFC00003FFE
7FFE00007FFE
7FFE00007FFE
7FFE00007FFE
7FFE0000FFFE
7FFF0000FFFE
3FFF8001FFFE
3FFFC003FFFE
3FFFE007FFFE
1FFFFFFFFFFE
0FFFFFFFFFFE
0FFFFFFFFFFE
07FFFFFFFFFE
03FFFFFFFFFE
03FFFFFFFFFE
01FFFFFFFFFE
007FFFFF3FFE
003FFFFE3FFE
0007FFFE3FFE
0000FFE03FFE
000000003FFE
000000003FFE
000000007FFC
000000007FFC
000000007FFC
000000007FFC
00000000FFF8
3FFF0000FFF8
3FFF0001FFF8
3FFF0001FFF8
1FFF8003FFF0
1FFFC007FFE0
1FFFC00FFFE0
0FFFFFFFFFC0
0FFFFFFFFFC0
0FFFFFFFFF80
07FFFFFFFF00
03FFFFFFFE00
01FFFFFFFC00
00FFFFFFF800
00FFFFFFF000
001FFFFFC000
0007FFFF0000
0000FFFC0000
ENDCHAR
STARTCHAR F
ENCODING 70
SWIDTH 610 0
DWIDTH 59 0
BBX 48 69 8 0
BITMAP
FFFFFFFFFFFF
FFFFFFFFFFFF
FFFFFFFFFFFF
FFFFFFFFFFFF
FFFFFFFFFFFF
FFFFFFFFFFFF
FFFFFFFFFFFF
FFFFFFFFFFFF
FFFFFFFFFFFF
FFFFFFFFFFFF
FFFFFFFFFFFF
FFFFFFFFFFFF
FFFC00000000
FFFC00000000
FFFC00000000
FFFC00000000
FFFC00000000
FFFC00000000
FFFC00000000
FFFC00000000
FFFC00000000
FFFC00000000
FFFC00000000
FFFC00000000
FFFC00000000
FFFC00000000
FFFC00000000
FFFC00000000
FFFFFFFFFFF0
FFFFFFFFFFF0
FFFFFFFFFFF0
FFFFFFFFFFF0
FFFFFFFFFFF0
FFFFFFFFFFF0
FFFFFFFFFFF0
FFFFFFFFFFF0
FFFFFFFFFFF0
FFFFFFFFFFF0
FFFFFFFFFFF0
FFFFFFFFFFF0
FFFC00000000
FFFC00000000
FFFC00000000
FFFC00000000
FFFC00000000
FFFC00000000
FFFC00000000
FFFC00000000
FFFC00000000
FFFC00000000
FFFC00000000
FFFC00000000
FFFC00000000
FFFC00000000
FFFC00000000
FFFC00000000
FFFC00000000
FFFC00000000
FFFC00000000
FFFC00000000
FFFC00000000
FFFC00000000
FFFC00000000
FFFC00000000
FFFC00000000
FFFC00000000
FFFC00000000
FFFC00000000
FFFC00000000
ENDCHAR
STARTCHAR degree
ENCODING 176
SWIDTH 399 0
DWIDTH 38 0
BBX 31 30 4 39
BITMAP
00010000
007FFC00
00FFFF00
03FFFF80
07FFFFC0
07FFFFE0
1FFFFFF0
1FFFFFF8
3FFFFFF8
3FE007FC
7FC00FFC
7FC003FC
7F8001FE
FF0001FE
FF0001FE
FF0001FE
FF0001FE
7F8001FE
7F8003FC
7F8003FE
7FC007FC
3FE007FC
3FF83FF8
1FFFFFF8
0FFFFFF0
07FFFFE0
07FFFFE0
01FFFF80
00FFFE00
001FF800
ENDCHAR
STARTCHAR ordmasculine
ENCODING 186
SWIDTH 365 0
DWIDTH 35 0
BBX 33 32 2 39
BITMAP
007FFE0000
01FFFFC000
03FFFFE000
07FFFFF000
0FFFFFF800
1FFFFFFC00
3FFFFFFE00
3FF007FE00
7FE003FF00
FFC003FF00
FF8001FF80
FF8000FF80
FF8000FF80
FF8000FF80
FF8000FF80
FF8000FF80
FF8000FF80
FF8000FF80
FF8000FF80
FF8000FF80
FF8000FF80
7FC001FF80
7FE003FF00
7FE003FF00
3FF80FFE00
3FFFFFFC00
1FFFFFFC00
1FFFFFF800
0FFFFFF000
03FFFFC000
00FFFF8000
001FFC0000
ENDCHAR
ENDFONT
