STARTFONT 2.1
FONT -FontForge-Helvetica-Book-R-Normal--48-460-75-75-P-267-ISO10646-1
SIZE 46 75 75
FONTBOUNDINGBOX 45 50 -2 -11
COMMENT "Generated by fontforge, http://fontforge.sourceforge.net"
COMMENT "(c) 1990-2006 Apple Computer Inc. (c) 1981 Linotype AG (c) 1990-91 Type Solutions Inc."
STARTPROPERTIES 41
FOUNDRY "FontForge"
FAMILY_NAME "Helvetica"
WEIGHT_NAME "Book"
SLANT "R"
SETWIDTH_NAME "Normal"
ADD_STYLE_NAME ""
PIXEL_SIZE 48
POINT_SIZE 460
RESOLUTION_X 75
RESOLUTION_Y 75
SPACING "P"
AVERAGE_WIDTH 267
CHARSET_REGISTRY "ISO10646"
CHARSET_ENCODING "1"
FONTNAME_REGISTRY ""
CHARSET_COLLECTIONS "ISO8859-2 ISO8859-5 ISO8859-7 ISO8859-9 ISO8859-4 ISO10646-1"
FONT_NAME "Helvetica"
FACE_NAME "Helvetica"
COPYRIGHT "(c) 1990-2006 Apple Computer Inc. (c) 1981 Linotype AG (c) 1990-91 Type Solutions Inc."
FONT_VERSION "17.0d1e1"
FONT_ASCENT 38
FONT_DESCENT 10
UNDERLINE_POSITION -5
UNDERLINE_THICKNESS 3
X_HEIGHT 26
CAP_HEIGHT 34
DEFAULT_CHAR 1
RAW_ASCENT 799
RAW_DESCENT 200
NORM_SPACE 13
RELATIVE_WEIGHT 40
RELATIVE_SETWIDTH 50
SUPERSCRIPT_X 0
SUPERSCRIPT_Y 22
SUPERSCRIPT_SIZE 31
SUBSCRIPT_X 0
SUBSCRIPT_Y 6
SUBSCRIPT_SIZE 31
FIGURE_WIDTH 27
AVG_LOWERCASE_WIDTH 263
AVG_UPPERCASE_WIDTH 345
ENDPROPERTIES
CHARS 96
STARTCHAR exclam
ENCODING 33
SWIDTH 277 0
DWIDTH 13 0
BBX 4 35 6 0
BITMAP
F0
F0
F0
F0
F0
F0
F0
F0
F0
F0
F0
F0
F0
F0
F0
F0
F0
F0
F0
F0
60
60
60
60
60
60
60
60
00
00
00
F0
F0
F0
F0
ENDCHAR
STARTCHAR quotedbl
ENCODING 34
SWIDTH 354 0
DWIDTH 16 0
BBX 12 14 2 21
BITMAP
F0F0
F0F0
F0F0
F0F0
F0F0
F0F0
F0F0
F0F0
F0F0
F0F0
7070
6060
6060
6060
ENDCHAR
STARTCHAR numbersign
ENCODING 35
SWIDTH 556 0
DWIDTH 27 0
BBX 27 35 0 0
BITMAP
001E0F00
001E0F00
001E0F00
001E1E00
003C1E00
003C1E00
003C3E00
007C3C00
00783C00
00783C00
00787C00
0FFFFFE0
1FFFFFE0
1FFFFFC0
00F0F000
01E0F000
01E0F000
01E0F000
03E1E000
03C1E000
03C1E000
03C3E000
7FFFFF00
FFFFFF00
FFFFFE00
07878000
0F078000
0F078000
0F078000
0F0F0000
1E0F0000
1E0F0000
1E1F0000
3E1E0000
3C1E0000
ENDCHAR
STARTCHAR dollar
ENCODING 36
SWIDTH 556 0
DWIDTH 27 0
BBX 24 45 1 -6
BITMAP
001800
001800
001800
00FF00
07FFC0
0FFFF0
1FFFF8
1F19F8
3E187C
3C183C
78183E
78181E
78181E
781800
781800
7C1800
3E1800
3F1800
1FF800
0FFE00
07FFC0
01FFF0
003FFC
001FFC
0018FE
00183E
00181F
00180F
00180F
F0180F
F0180F
F0180F
F8181F
78181E
7C183E
3F18FC
3FFFFC
1FFFF0
07FFE0
01FF00
001800
001800
001800
001800
001800
ENDCHAR
STARTCHAR percent
ENCODING 37
SWIDTH 889 0
DWIDTH 43 0
BBX 39 35 2 -1
BITMAP
0000000C00
07E0001C00
1FF8001800
3FFC003800
7FFE003000
7C3E007000
F81F006000
F00F00C000
F00F01C000
F00F018000
F00F038000
F81F030000
7C3E070000
7FFE060000
3FFC0C0000
1FF80C0000
07E0180000
0000380000
0000300FC0
0000703FF0
0000607FF8
0000E0FFFC
0000C0F87C
000181F03E
000181E01E
000301E01E
000701E01E
000601E01E
000E01F03E
000C00F87C
001800FFFC
0018007FF8
0030003FF0
0030000FC0
0060000000
ENDCHAR
STARTCHAR ampersand
ENCODING 38
SWIDTH 666 0
DWIDTH 32 0
BBX 28 36 2 -1
BITMAP
007E0000
01FF8000
03FFC000
07FFE000
07C3E000
0F81F000
0F00F000
0F00F000
0F00F000
0F00F000
0F81E000
0783E000
07C7C000
03EFC000
01FF8000
01FE0000
03FC0000
07FC0000
0FFE0000
1F9F03C0
3E0F83C0
7C0F8780
7807C780
F803E780
F001FF00
F000FF00
F0007F00
F0007E00
F0003E00
F8007F00
7C00FF80
7F03F7C0
3FFFE3E0
1FFFC1E0
0FFF01F0
03FC0000
ENDCHAR
STARTCHAR quotesingle
ENCODING 39
SWIDTH 190 0
DWIDTH 8 0
BBX 4 14 2 21
BITMAP
F0
F0
F0
F0
F0
F0
F0
F0
F0
F0
60
60
60
60
ENDCHAR
STARTCHAR parenleft
ENCODING 40
SWIDTH 333 0
DWIDTH 16 0
BBX 11 45 3 -9
BITMAP
00E0
01C0
03C0
0380
0780
0700
0F00
0F00
1E00
1E00
3E00
3C00
7C00
7C00
7C00
7800
F800
F800
F800
F800
F800
F800
F800
F800
F800
F800
F800
F800
7800
7C00
7C00
7C00
7C00
3C00
3E00
1E00
1E00
1F00
0F00
0700
0780
0380
03C0
01C0
00E0
ENDCHAR
STARTCHAR parenright
ENCODING 41
SWIDTH 333 0
DWIDTH 17 0
BBX 11 45 2 -9
BITMAP
E000
7000
7800
3800
3C00
1C00
1E00
1F00
0F00
0F00
0F80
0780
0780
07C0
07C0
07C0
03C0
03E0
03E0
03E0
03E0
03E0
03E0
03E0
03E0
03E0
03E0
03E0
03E0
07C0
07C0
07C0
07C0
0780
0F80
0F00
0F00
1E00
1E00
3C00
3C00
3800
7800
7000
E000
ENDCHAR
STARTCHAR asterisk
ENCODING 42
SWIDTH 389 0
DWIDTH 19 0
BBX 15 14 2 21
BITMAP
0380
0380
4384
7BBC
FFFE
7FFC
07C0
07C0
0EE0
0EE0
1C70
1C70
3838
1830
ENDCHAR
STARTCHAR plus
ENCODING 43
SWIDTH 583 0
DWIDTH 28 0
BBX 24 24 2 0
BITMAP
003C00
003C00
003C00
003C00
003C00
003C00
003C00
003C00
003C00
003C00
FFFFFF
FFFFFF
FFFFFF
FFFFFF
003C00
003C00
003C00
003C00
003C00
003C00
003C00
003C00
003C00
003C00
ENDCHAR
STARTCHAR comma
ENCODING 44
SWIDTH 277 0
DWIDTH 12 0
BBX 4 11 4 -7
BITMAP
F0
F0
F0
F0
30
30
30
70
60
E0
80
ENDCHAR
STARTCHAR hyphen
ENCODING 45
SWIDTH 333 0
DWIDTH 16 0
BBX 12 4 2 11
BITMAP
FFF0
FFF0
FFF0
FFF0
ENDCHAR
STARTCHAR period
ENCODING 46
SWIDTH 277 0
DWIDTH 12 0
BBX 4 4 4 0
BITMAP
F0
F0
F0
F0
ENDCHAR
STARTCHAR slash
ENCODING 47
SWIDTH 277 0
DWIDTH 13 0
BBX 15 35 1 0
BITMAP
003E
003C
003C
007C
0078
0078
00F8
00F0
00F0
01F0
01E0
01E0
01E0
03C0
03C0
03C0
0780
0780
0780
0F80
0F00
0F00
1F00
1E00
1E00
3E00
3C00
3C00
3C00
7800
7800
7800
F000
F000
F000
ENDCHAR
STARTCHAR zero
ENCODING 48
SWIDTH 556 0
DWIDTH 27 0
BBX 23 37 2 -1
BITMAP
00FE00
03FF80
07FFC0
0FFFE0
1F83F0
1F01F8
3E00F8
3E00F8
7C007C
7C007C
7C007C
7C007E
F8003E
F8003E
F8003E
F8003E
F8003E
F8003E
F8003E
F8003E
F8003E
F8003E
F8003E
F8003E
F8003E
78003C
7C007C
7C007C
7C007C
3E00F8
3E00F8
1F01F0
1F83F0
0FFFE0
07FFC0
03FF80
00FE00
ENDCHAR
STARTCHAR one
ENCODING 49
SWIDTH 556 0
DWIDTH 27 0
BBX 12 35 5 0
BITMAP
00F0
00F0
01F0
01F0
03F0
1FF0
FFF0
FFF0
FFF0
01F0
01F0
01F0
01F0
01F0
01F0
01F0
01F0
01F0
01F0
01F0
01F0
01F0
01F0
01F0
01F0
01F0
01F0
01F0
01F0
01F0
01F0
01F0
01F0
01F0
01F0
ENDCHAR
STARTCHAR two
ENCODING 50
SWIDTH 556 0
DWIDTH 27 0
BBX 23 36 2 0
BITMAP
00FF00
03FFC0
07FFF0
0FFFF0
1F83F8
3E00FC
3E007C
3C007E
7C003E
78003E
78003E
78003E
78003E
00003E
00007C
0000FC
0001F8
0003F8
0007F0
001FE0
003F80
00FF00
01FC00
03F800
0FE000
1FC000
1F0000
3E0000
3C0000
7C0000
780000
780000
FFFFFE
FFFFFE
FFFFFE
FFFFFE
ENDCHAR
STARTCHAR three
ENCODING 51
SWIDTH 556 0
DWIDTH 27 0
BBX 23 37 1 -1
BITMAP
01FE00
07FF80
0FFFC0
1FFFE0
1F07F0
3E01F0
3C01F8
7C00F8
7800F8
7800F8
7800F8
7800F8
0001F0
0001F0
0007E0
007FC0
007F00
007FE0
007FF0
0003F8
0000FC
00007C
00007E
00003E
00003E
00003E
F0003E
F0003E
F0003E
F8007C
78007C
7C00F8
3F03F8
3FFFF0
1FFFE0
07FFC0
01FE00
ENDCHAR
STARTCHAR four
ENCODING 52
SWIDTH 556 0
DWIDTH 27 0
BBX 24 35 1 0
BITMAP
0003E0
0003E0
0007E0
000FE0
000FE0
001FE0
003FE0
003FE0
007FE0
007BE0
00FBE0
01F3E0
01E3E0
03E3E0
07C3E0
0783E0
0F83E0
1F03E0
1E03E0
3E03E0
7C03E0
7803E0
F803E0
FFFFFF
FFFFFF
FFFFFF
FFFFFF
0003E0
0003E0
0003E0
0003E0
0003E0
0003E0
0003E0
0003E0
ENDCHAR
STARTCHAR five
ENCODING 53
SWIDTH 556 0
DWIDTH 27 0
BBX 23 36 2 -1
BITMAP
0FFFF8
0FFFF8
1FFFF8
1FFFF8
1E0000
1E0000
1E0000
1E0000
1E0000
1E0000
3E0000
3C0000
3C7F00
3DFFC0
3FFFE0
3FFFF0
3F83F8
3E01FC
7C00FC
00007C
00007E
00003E
00003E
00003E
00003E
00003E
00003E
F8007C
F8007C
FC00FC
7E01F8
7F03F8
3FFFF0
1FFFE0
07FF80
01FE00
ENDCHAR
STARTCHAR six
ENCODING 54
SWIDTH 556 0
DWIDTH 27 0
BBX 23 37 2 -1
BITMAP
007F00
01FFC0
07FFE0
0FFFF0
0FC1F8
1F00F8
3E007C
3C003C
3C003C
780000
780000
780000
780000
F07F00
F1FFC0
F3FFE0
F7FFF0
FF03F8
FE00FC
FC00FC
F8007E
F0007E
F0003E
F0003E
F0003E
F0003E
F0003E
70003E
78007C
78007C
3C00FC
3E01F8
1F03F8
0FFFF0
07FFE0
03FFC0
00FE00
ENDCHAR
STARTCHAR seven
ENCODING 55
SWIDTH 556 0
DWIDTH 27 0
BBX 23 35 2 0
BITMAP
FFFFFE
FFFFFE
FFFFFE
FFFFFE
00003C
00007C
000078
0000F0
0001F0
0001E0
0003E0
0007C0
000780
000F80
000F00
001F00
001E00
003E00
003E00
007C00
007C00
007800
00F800
00F800
00F000
01F000
01F000
01F000
03E000
03E000
03E000
03E000
07C000
07C000
07C000
ENDCHAR
STARTCHAR eight
ENCODING 56
SWIDTH 556 0
DWIDTH 27 0
BBX 23 37 2 -1
BITMAP
00FE00
07FFC0
0FFFE0
1FFFF0
3F83F8
3E01F8
7E00FC
7C007C
7C007C
7C007C
7C007C
7C007C
7E00F8
3F01F8
1F83F0
0FFFE0
07FF80
07FFE0
1FFFF0
3F83F8
7E00FC
7C007C
FC007E
F8003E
F8003E
F8003E
F8003E
F8003E
F8003E
FC007C
7C007C
7E00FC
3F83F8
1FFFF0
0FFFE0
07FFC0
00FF00
ENDCHAR
STARTCHAR nine
ENCODING 57
SWIDTH 556 0
DWIDTH 27 0
BBX 23 37 2 -1
BITMAP
00FE00
07FF80
0FFFC0
1FFFE0
3F81F0
3F0078
7E0078
7C003C
FC001C
F8001C
F8001C
F8001E
F8001E
F8001E
F8001E
F8001E
7C003E
7C003E
7E00FE
3F81FE
1FFFDE
0FFFDE
07FF1E
01FC3C
00003C
00003C
00003C
00007C
780078
7800F8
7C00F0
3C01F0
3F07E0
1FFFC0
0FFFC0
07FF00
01FC00
ENDCHAR
STARTCHAR colon
ENCODING 58
SWIDTH 277 0
DWIDTH 13 0
BBX 4 27 6 0
BITMAP
F0
F0
F0
F0
00
00
00
00
00
00
00
00
00
00
00
00
00
00
00
00
00
00
00
F0
F0
F0
F0
ENDCHAR
STARTCHAR semicolon
ENCODING 59
SWIDTH 277 0
DWIDTH 13 0
BBX 4 34 6 -7
BITMAP
F0
F0
F0
F0
00
00
00
00
00
00
00
00
00
00
00
00
00
00
00
00
00
00
00
F0
F0
F0
F0
30
30
30
30
60
E0
80
ENDCHAR
STARTCHAR less
ENCODING 60
SWIDTH 583 0
DWIDTH 27 0
BBX 27 27 0 0
BITMAP
00000020
000001E0
000007E0
00001FE0
0000FFC0
0003FF00
001FFC00
007FE000
01FF8000
0FFE0000
3FF00000
FFC00000
FE000000
F8000000
FE000000
FFC00000
3FF00000
0FFE0000
01FF8000
007FE000
001FFC00
0003FF00
0000FFE0
00001FE0
000007E0
000001E0
00000020
ENDCHAR
STARTCHAR equal
ENCODING 61
SWIDTH 583 0
DWIDTH 28 0
BBX 24 14 2 5
BITMAP
FFFFFF
FFFFFF
FFFFFF
FFFFFF
000000
000000
000000
000000
000000
000000
FFFFFF
FFFFFF
FFFFFF
FFFFFF
ENDCHAR
STARTCHAR greater
ENCODING 62
SWIDTH 583 0
DWIDTH 27 0
BBX 27 27 0 0
BITMAP
80000000
F0000000
FC000000
FF000000
FFE00000
1FF80000
07FF0000
00FFC000
003FF000
000FFE00
0001FF80
00007FE0
00000FE0
000003E0
00000FE0
00007FE0
0001FF80
000FFE00
003FF000
00FFC000
07FF0000
1FF80000
7FE00000
FF000000
FC000000
F0000000
80000000
ENDCHAR
STARTCHAR question
ENCODING 63
SWIDTH 556 0
DWIDTH 27 0
BBX 21 35 4 0
BITMAP
01FC00
07FF80
1FFFC0
3FFFE0
3E07F0
7C01F0
7801F8
F800F8
F000F8
F000F8
F000F8
0000F8
0001F0
0003F0
0003E0
0007C0
000F80
001F00
003E00
003C00
007C00
007800
00F800
00F000
00F000
00F000
00F000
000000
000000
000000
000000
00F000
00F000
00F000
00F000
ENDCHAR
STARTCHAR at
ENCODING 64
SWIDTH 1015 0
DWIDTH 49 0
BBX 38 37 5 -1
BITMAP
0001FFC000
000FFFF800
003FFFFE00
00FF007F80
01F0000FC0
03C00003E0
07800000F0
0F00000070
1E007C0078
1C01FF1C38
3803FFB838
3807E1B81C
700F80B81C
700F00F01C
701F00701C
E01E00701C
E03E00F01C
E03C00E01C
E03C00E01C
E03C00E038
E03C01C038
E03C01C070
E03C03C070
F03E07C0E0
701F0DE3C0
701FFDFFC0
780FF8FF00
3803E07C00
3C00000000
1E00000080
0F000001C0
07C00007C0
03F0001F80
01FE00FF00
00FFFFFC00
003FFFF000
0003FF0000
ENDCHAR
STARTCHAR A
ENCODING 65
SWIDTH 666 0
DWIDTH 32 0
BBX 30 34 1 0
BITMAP
000FC000
000FC000
000FE000
001FE000
001FF000
001FF000
003CF000
003CF800
007CF800
00787800
00787C00
00F87C00
00F03E00
00F03E00
01F03E00
01E01F00
03E01F00
03C01F00
03C00F80
07C00F80
07FFFF80
0FFFFFC0
0FFFFFC0
0FFFFFE0
1F0003E0
1F0003E0
1E0001F0
3E0001F0
3E0001F0
7C0000F8
7C0000F8
780000FC
F800007C
F800007C
ENDCHAR
STARTCHAR B
ENCODING 66
SWIDTH 666 0
DWIDTH 33 0
BBX 27 35 4 0
BITMAP
FFFFE000
FFFFF800
FFFFFC00
FFFFFE00
F0007F00
F0001F00
F0000F80
F0000780
F0000780
F0000780
F0000780
F0000780
F0000F00
F0001F00
F0007E00
FFFFFC00
FFFFF800
FFFFFE00
FFFFFF80
F0001F80
F00007C0
F00003C0
F00001E0
F00001E0
F00001E0
F00001E0
F00001E0
F00003E0
F00003C0
F00007C0
F0001F80
FFFFFF00
FFFFFE00
FFFFFC00
FFFFE000
ENDCHAR
STARTCHAR C
ENCODING 67
SWIDTH 722 0
DWIDTH 35 0
BBX 31 37 2 -1
BITMAP
000FF800
007FFF00
01FFFFC0
03FFFFE0
07F807F0
0FC001F8
1F8000FC
1F00007C
3E00003C
3C00003E
7C00001E
78000000
78000000
F8000000
F0000000
F0000000
F0000000
F0000000
F0000000
F0000000
F0000000
F0000000
F0000000
F000001E
7800001E
7800003E
7800003C
3C00007C
3E000078
3E0000F8
1F0001F0
0FC003F0
07F00FE0
03FFFFC0
01FFFF80
007FFE00
001FF000
ENDCHAR
STARTCHAR D
ENCODING 68
SWIDTH 722 0
DWIDTH 34 0
BBX 28 35 4 0
BITMAP
FFFFC000
FFFFF000
FFFFFC00
FFFFFE00
F0007F00
F0001F80
F0000F80
F00007C0
F00003C0
F00003E0
F00001E0
F00001E0
F00001F0
F00000F0
F00000F0
F00000F0
F00000F0
F00000F0
F00000F0
F00000F0
F00000F0
F00000F0
F00001E0
F00001E0
F00001E0
F00003E0
F00003C0
F00007C0
F0000F80
F0001F80
F0007F00
FFFFFE00
FFFFFC00
FFFFF000
FFFFC000
ENDCHAR
STARTCHAR E
ENCODING 69
SWIDTH 666 0
DWIDTH 31 0
BBX 25 35 4 0
BITMAP
FFFFFF80
FFFFFF80
FFFFFF80
FFFFFF80
F0000000
F0000000
F0000000
F0000000
F0000000
F0000000
F0000000
F0000000
F0000000
F0000000
F0000000
FFFFFE00
FFFFFE00
FFFFFE00
FFFFFE00
F0000000
F0000000
F0000000
F0000000
F0000000
F0000000
F0000000
F0000000
F0000000
F0000000
F0000000
F0000000
FFFFFF80
FFFFFF80
FFFFFF80
FFFFFF80
ENDCHAR
STARTCHAR F
ENCODING 70
SWIDTH 610 0
DWIDTH 29 0
BBX 24 35 4 0
BITMAP
FFFFFF
FFFFFF
FFFFFF
FFFFFF
F00000
F00000
F00000
F00000
F00000
F00000
F00000
F00000
F00000
F00000
F00000
FFFFFC
FFFFFC
FFFFFC
FFFFFC
F00000
F00000
F00000
F00000
F00000
F00000
F00000
F00000
F00000
F00000
F00000
F00000
F00000
F00000
F00000
F00000
ENDCHAR
STARTCHAR G
ENCODING 71
SWIDTH 777 0
DWIDTH 37 0
BBX 31 37 2 -1
BITMAP
000FF800
007FFF00
00FFFFC0
03FFFFE0
07F00FF0
0FC001F8
1F8000F8
1F00007C
3E00003C
3C00003E
7C00001E
78000000
78000000
78000000
F0000000
F0000000
F0000000
F000FFFE
F000FFFE
F000FFFE
F000FFFE
F000001E
F000001E
F000001E
7800001E
7800003E
7800003E
7C00003E
3C00007E
3E0000FE
1F0001FE
0F8003FE
0FF00FDE
07FFFF8E
01FFFF0E
00FFFE0E
001FF000
ENDCHAR
STARTCHAR H
ENCODING 72
SWIDTH 722 0
DWIDTH 35 0
BBX 27 35 4 0
BITMAP
F00001E0
F00001E0
F00001E0
F00001E0
F00001E0
F00001E0
F00001E0
F00001E0
F00001E0
F00001E0
F00001E0
F00001E0
F00001E0
F00001E0
FFFFFFE0
FFFFFFE0
FFFFFFE0
FFFFFFE0
F00001E0
F00001E0
F00001E0
F00001E0
F00001E0
F00001E0
F00001E0
F00001E0
F00001E0
F00001E0
F00001E0
F00001E0
F00001E0
F00001E0
F00001E0
F00001E0
F00001E0
ENDCHAR
STARTCHAR I
ENCODING 73
SWIDTH 277 0
DWIDTH 13 0
BBX 5 34 5 0
BITMAP
F8
F8
F8
F8
F8
F8
F8
F8
F8
F8
F8
F8
F8
F8
F8
F8
F8
F8
F8
F8
F8
F8
F8
F8
F8
F8
F8
F8
F8
F8
F8
F8
F8
F8
ENDCHAR
STARTCHAR J
ENCODING 74
SWIDTH 500 0
DWIDTH 25 0
BBX 20 36 1 -1
BITMAP
0000F0
0000F0
0000F0
0000F0
0000F0
0000F0
0000F0
0000F0
0000F0
0000F0
0000F0
0000F0
0000F0
0000F0
0000F0
0000F0
0000F0
0000F0
0000F0
0000F0
0000F0
0000F0
0000F0
0000F0
F000F0
F000F0
F000F0
F000F0
F000F0
F801E0
7803E0
7E07E0
7FFFC0
3FFF80
0FFF00
03F800
ENDCHAR
STARTCHAR K
ENCODING 75
SWIDTH 666 0
DWIDTH 33 0
BBX 27 35 4 0
BITMAP
F00007E0
F0000FC0
F0001F80
F0003F00
F0007E00
F000FC00
F001F800
F003F000
F007E000
F00FC000
F01F0000
F01E0000
F03C0000
F0780000
F0F00000
F1F80000
F3FC0000
F7BC0000
FF3E0000
FE1F0000
FC0F0000
F80F8000
F007C000
F003C000
F003E000
F001F000
F000F000
F000F800
F0007C00
F0003C00
F0003E00
F0001F00
F0000F00
F0000F80
F00007C0
ENDCHAR
STARTCHAR L
ENCODING 76
SWIDTH 556 0
DWIDTH 27 0
BBX 22 35 4 0
BITMAP
F00000
F00000
F00000
F00000
F00000
F00000
F00000
F00000
F00000
F00000
F00000
F00000
F00000
F00000
F00000
F00000
F00000
F00000
F00000
F00000
F00000
F00000
F00000
F00000
F00000
F00000
F00000
F00000
F00000
F00000
F00000
FFFFFC
FFFFFC
FFFFFC
FFFFFC
ENDCHAR
STARTCHAR M
ENCODING 77
SWIDTH 833 0
DWIDTH 41 0
BBX 33 35 4 0
BITMAP
FC00001F80
FE00003F80
FE00003F80
FF00003F80
FF00007F80
FF00007F80
F78000F780
F78000F780
F78000F780
F3C001E780
F3C001E780
F3C001E780
F1E003C780
F1E003C780
F1E003C780
F0F0078780
F0F0078780
F0F0078780
F0780F0780
F0780F0780
F0780F0780
F03C1E0780
F03C1E0780
F03C1E0780
F01E3C0780
F01E3C0780
F00E380780
F00F780780
F00F780780
F007700780
F007F00780
F007F00780
F003E00780
F003E00780
F003E00780
ENDCHAR
STARTCHAR N
ENCODING 78
SWIDTH 722 0
DWIDTH 35 0
BBX 27 35 4 0
BITMAP
F80001E0
FC0001E0
FE0001E0
FE0001E0
FF0001E0
FF0001E0
F78001E0
F7C001E0
F3C001E0
F3E001E0
F1F001E0
F0F001E0
F0F801E0
F07801E0
F03C01E0
F03E01E0
F01E01E0
F01F01E0
F00F01E0
F00781E0
F007C1E0
F003C1E0
F003E1E0
F001F1E0
F000F1E0
F000F9E0
F00079E0
F0003DE0
F0003FE0
F0001FE0
F0001FE0
F0000FE0
F00007E0
F00007E0
F00003E0
ENDCHAR
STARTCHAR O
ENCODING 79
SWIDTH 777 0
DWIDTH 38 0
BBX 34 37 2 -1
BITMAP
000FFC0000
007FFF8000
00FFFFE000
03FFFFF000
07F807F800
0FE000FC00
1F80007E00
1F00003F00
3E00001F00
3C00000F80
7C00000F80
7800000780
7800000780
F8000007C0
F0000003C0
F0000003C0
F0000003C0
F0000003C0
F0000003C0
F0000003C0
F0000003C0
F0000003C0
F0000007C0
F800000780
7800000780
7800000780
7C00000F00
3C00000F00
3E00001F00
1F00003E00
1F80007C00
0FC000FC00
07F807F800
03FFFFF000
01FFFFC000
007FFF0000
000FF80000
ENDCHAR
STARTCHAR P
ENCODING 80
SWIDTH 666 0
DWIDTH 31 0
BBX 25 35 4 0
BITMAP
FFFFE000
FFFFF800
FFFFFC00
FFFFFE00
F0007F00
F0001F00
F0000F80
F0000780
F0000780
F0000780
F0000780
F0000780
F0000780
F0000F80
F0001F00
F0007F00
FFFFFE00
FFFFFC00
FFFFF800
FFFFE000
F0000000
F0000000
F0000000
F0000000
F0000000
F0000000
F0000000
F0000000
F0000000
F0000000
F0000000
F0000000
F0000000
F0000000
F0000000
ENDCHAR
STARTCHAR Q
ENCODING 81
SWIDTH 777 0
DWIDTH 38 0
BBX 34 39 2 -3
BITMAP
000FFC0000
007FFF8000
00FFFFE000
03FFFFF000
07F807F800
0FC000FC00
1F80007E00
1F00003E00
3E00001F00
3C00000F00
7C00000F80
7800000780
7800000780
F8000007C0
F0000003C0
F0000003C0
F0000003C0
F0000003C0
F0000003C0
F0000003C0
F0000003C0
F0000003C0
F0000007C0
F000000780
7800000780
7800000780
7C00040F80
3C000E0F00
3E001F1F00
1F001FFE00
1F8007FE00
0FC003FC00
07F803F800
03FFFFFE00
01FFFFFF00
007FFF9F80
000FF80F80
0000000380
0000000100
ENDCHAR
STARTCHAR R
ENCODING 82
SWIDTH 722 0
DWIDTH 34 0
BBX 27 35 4 0
BITMAP
FFFFE000
FFFFFC00
FFFFFE00
FFFFFF00
F0001F80
F0000F80
F00007C0
F00003C0
F00003C0
F00003C0
F00003C0
F00003C0
F00003C0
F0000780
F0000F80
F0003F00
FFFFFE00
FFFFFC00
FFFFFE00
FFFFFF00
F0003F00
F0000F80
F0000F80
F0000780
F0000780
F0000780
F0000780
F0000780
F0000780
F0000780
F0000780
F0000780
F00007C0
F00007C0
F00003E0
ENDCHAR
STARTCHAR S
ENCODING 83
SWIDTH 666 0
DWIDTH 31 0
BBX 27 37 2 -1
BITMAP
007FC000
03FFF000
07FFFC00
0FFFFE00
1F807F00
3E001F80
3C000F80
7C0007C0
780007C0
780003C0
780003C0
78000000
7C000000
7E000000
3F800000
3FF80000
1FFF8000
07FFF800
01FFFE00
001FFF00
0000FF80
00001FC0
000007C0
000003E0
000001E0
F00001E0
F00001E0
F00001E0
F80001E0
780003E0
7C0003C0
3E000FC0
3FC03F80
1FFFFF00
0FFFFE00
03FFF800
007FC000
ENDCHAR
STARTCHAR T
ENCODING 84
SWIDTH 610 0
DWIDTH 30 0
BBX 28 35 1 0
BITMAP
FFFFFFF0
FFFFFFF0
FFFFFFF0
FFFFFFF0
000F0000
000F0000
000F0000
000F0000
000F0000
000F0000
000F0000
000F0000
000F0000
000F0000
000F0000
000F0000
000F0000
000F0000
000F0000
000F0000
000F0000
000F0000
000F0000
000F0000
000F0000
000F0000
000F0000
000F0000
000F0000
000F0000
000F0000
000F0000
000F0000
000F0000
000F0000
ENDCHAR
STARTCHAR U
ENCODING 85
SWIDTH 722 0
DWIDTH 35 0
BBX 27 36 4 -1
BITMAP
F00001E0
F00001E0
F00001E0
F00001E0
F00001E0
F00001E0
F00001E0
F00001E0
F00001E0
F00001E0
F00001E0
F00001E0
F00001E0
F00001E0
F00001E0
F00001E0
F00001E0
F00001E0
F00001E0
F00001E0
F00001E0
F00001E0
F00001E0
F00001E0
F00001E0
F00001E0
780003C0
780003C0
7C0007C0
3E000F80
3F001F80
1FC07F00
0FFFFE00
07FFFC00
03FFF800
007FC000
ENDCHAR
STARTCHAR V
ENCODING 86
SWIDTH 666 0
DWIDTH 33 0
BBX 29 35 2 0
BITMAP
F0000078
F0000078
F80000F8
780000F0
780000F0
7C0001F0
3C0001E0
3C0001E0
1E0003C0
1E0003C0
1F0007C0
0F000780
0F000780
0F800F80
07800F00
07800F00
07C01F00
03C01E00
03C01E00
03E03E00
01E03C00
01F07C00
00F07800
00F07800
00F8F800
0078F000
0078F000
007DF000
003DE000
003DE000
003FE000
001FC000
001FC000
001F8000
000F8000
ENDCHAR
STARTCHAR W
ENCODING 87
SWIDTH 943 0
DWIDTH 45 0
BBX 41 35 2 0
BITMAP
F0003E000780
F0003E000780
F0003E000780
F0003E000780
78007F000F00
78007F000F00
780077000F00
7800F7800F00
3800F7800E00
3C00F7801E00
3C00E3801E00
3C01E3C01E00
1C01E3C01C00
1E01E3C03C00
1E01C1C03C00
1E03C1E03C00
0E03C1E03800
0E0380E03800
0F0380E07800
0F0780F07800
070780F07000
070700707000
078F00707000
078F0078F000
078F0078F000
038E0038E000
039E003CE000
03DE003DE000
03DE003DE000
01DC001DC000
01FC001FC000
01FC001FC000
01F8000FC000
00F8000F8000
00F8000F8000
ENDCHAR
STARTCHAR X
ENCODING 88
SWIDTH 666 0
DWIDTH 32 0
BBX 26 35 3 0
BITMAP
780007C0
7C000780
3C000F80
1E001F00
1F001E00
0F003E00
0F803C00
07C07800
03C0F800
03E0F000
01E1E000
00F3E000
00FBC000
007F8000
003F8000
003F0000
001E0000
001E0000
003F0000
003F0000
007F8000
00F3C000
00F3C000
01E1E000
03E1F000
03C0F000
07807800
0F807C00
0F003C00
1E001E00
3E001F00
3C000F00
7C000F80
F80007C0
F00003C0
ENDCHAR
STARTCHAR Y
ENCODING 89
SWIDTH 666 0
DWIDTH 34 0
BBX 28 35 3 0
BITMAP
F00000F0
780001E0
7C0003E0
3C0003C0
3E0007C0
1E000780
1F000F80
0F801F00
07801E00
07C03E00
03C03C00
03E07C00
01E07800
00F0F000
00F9F000
0079E000
007FE000
003FC000
001F8000
001F8000
000F0000
000F0000
000F0000
000F0000
000F0000
000F0000
000F0000
000F0000
000F0000
000F0000
000F0000
000F0000
000F0000
000F0000
000F0000
ENDCHAR
STARTCHAR Z
ENCODING 90
SWIDTH 610 0
DWIDTH 29 0
BBX 27 35 1 0
BITMAP
3FFFFFE0
3FFFFFE0
3FFFFFE0
3FFFFFE0
000003E0
000007C0
00000F80
00001F00
00003E00
00003C00
00007C00
0000F800
0001F000
0003E000
0003C000
0007C000
000F8000
001F0000
003E0000
003C0000
007C0000
00F80000
01F00000
03E00000
07C00000
07800000
0F800000
1F000000
3E000000
7C000000
78000000
FFFFFFE0
FFFFFFE0
FFFFFFE0
FFFFFFE0
ENDCHAR
STARTCHAR bracketleft
ENCODING 91
SWIDTH 277 0
DWIDTH 13 0
BBX 9 45 3 -9
BITMAP
FF80
FF80
FF80
FF80
F000
F000
F000
F000
F000
F000
F000
F000
F000
F000
F000
F000
F000
F000
F000
F000
F000
F000
F000
F000
F000
F000
F000
F000
F000
F000
F000
F000
F000
F000
F000
F000
F000
F000
F000
F000
F000
FF80
FF80
FF80
FF80
ENDCHAR
STARTCHAR backslash
ENCODING 92
SWIDTH 277 0
DWIDTH 13 0
BBX 17 35 -2 0
BITMAP
F00000
F80000
780000
780000
7C0000
3C0000
3E0000
1E0000
1E0000
1F0000
0F0000
0F0000
078000
078000
07C000
03C000
03C000
01E000
01E000
01F000
00F000
00F000
00F800
007800
007800
003C00
003C00
003E00
001E00
001E00
000F00
000F00
000F80
000780
000780
ENDCHAR
STARTCHAR bracketright
ENCODING 93
SWIDTH 277 0
DWIDTH 13 0
BBX 9 45 1 -9
BITMAP
FF80
FF80
FF80
FF80
0780
0780
0780
0780
0780
0780
0780
0780
0780
0780
0780
0780
0780
0780
0780
0780
0780
0780
0780
0780
0780
0780
0780
0780
0780
0780
0780
0780
0780
0780
0780
0780
0780
0780
0780
0780
0780
FF80
FF80
FF80
FF80
ENDCHAR
STARTCHAR asciicircum
ENCODING 94
SWIDTH 469 0
DWIDTH 23 0
BBX 20 20 3 14
BITMAP
00F000
01F000
01F800
01F800
03FC00
03BC00
079C00
079E00
071E00
0F0F00
0E0F00
1E0700
1E0780
3C0780
3C03C0
3803C0
7801C0
7801E0
F000E0
F000F0
ENDCHAR
STARTCHAR underscore
ENCODING 95
SWIDTH 556 0
DWIDTH 27 0
BBX 27 2 0 -6
BITMAP
FFFFFFE0
FFFFFFE0
ENDCHAR
STARTCHAR grave
ENCODING 96
SWIDTH 333 0
DWIDTH 16 0
BBX 9 7 1 28
BITMAP
F800
7C00
3E00
1E00
0F00
0700
0380
ENDCHAR
STARTCHAR a
ENCODING 97
SWIDTH 556 0
DWIDTH 27 0
BBX 24 29 2 -1
BITMAP
01FE00
07FFC0
1FFFE0
3FFFF0
3F03F0
7C00F8
780078
780078
000078
000078
0001F8
007FF8
07FFF8
1FFFF8
3FFC78
7F0078
7C0078
F80078
F00078
F00078
F000F8
F000F8
F001F8
F803F8
7E0FF8
7FFF7F
3FFE3F
1FFC3F
07F01F
ENDCHAR
STARTCHAR b
ENCODING 98
SWIDTH 556 0
DWIDTH 27 0
BBX 22 36 3 -1
BITMAP
F00000
F00000
F00000
F00000
F00000
F00000
F00000
F07E00
F3FF80
F7FFC0
FFFFE0
FF83F0
FE01F0
FC00F8
F80078
F80078
F8007C
F0003C
F0003C
F0003C
F0003C
F0003C
F0003C
F0003C
F0003C
F0003C
F80078
F80078
F80078
FC00F0
FE01F0
FF03E0
F7FFE0
F7FFC0
F3FF00
00FE00
ENDCHAR
STARTCHAR c
ENCODING 99
SWIDTH 500 0
DWIDTH 24 0
BBX 22 29 1 -1
BITMAP
00FE00
03FFC0
07FFE0
0FFFF0
1F83F8
3E00F8
3C0078
7C007C
78003C
78003C
F80000
F00000
F00000
F00000
F00000
F00000
F00000
F00000
F00000
F80000
78003C
78007C
7C0078
3E00F8
1F03F0
1FFFF0
0FFFE0
03FF80
00FE00
ENDCHAR
STARTCHAR d
ENCODING 100
SWIDTH 556 0
DWIDTH 26 0
BBX 22 36 1 -1
BITMAP
00003C
00003C
00003C
00003C
00003C
00003C
00003C
00FC3C
07FF3C
0FFFBC
1FFFFC
1F87FC
3E01FC
3C00FC
78007C
78007C
78007C
F0003C
F0003C
F0003C
F0003C
F0003C
F0003C
F0003C
F0003C
F0003C
F8007C
78007C
78007C
7C00FC
3E01FC
1F83FC
1FFFBC
0FFF3C
07FE3C
01F800
ENDCHAR
STARTCHAR e
ENCODING 101
SWIDTH 556 0
DWIDTH 27 0
BBX 23 29 2 -1
BITMAP
007E00
03FF80
07FFE0
0FFFF0
1F83F8
3E00F8
3C007C
78003C
78003C
70001E
F0001E
F0001E
FFFFFE
FFFFFE
FFFFFE
FFFFFE
F00000
F00000
F00000
F00000
78001E
78003E
7C007C
3E00FC
1F83F8
0FFFF0
07FFE0
03FFC0
00FE00
ENDCHAR
STARTCHAR f
ENCODING 102
SWIDTH 277 0
DWIDTH 13 0
BBX 12 35 0 0
BITMAP
01F0
07F0
0FF0
0FF0
0F80
0F00
0F00
0F00
FFF0
FFF0
FFF0
FFF0
0F00
0F00
0F00
0F00
0F00
0F00
0F00
0F00
0F00
0F00
0F00
0F00
0F00
0F00
0F00
0F00
0F00
0F00
0F00
0F00
0F00
0F00
0F00
ENDCHAR
STARTCHAR g
ENCODING 103
SWIDTH 556 0
DWIDTH 26 0
BBX 22 39 1 -11
BITMAP
00FC00
03FF3C
0FFFBC
1FFFFC
1F03FC
3E01FC
7C00FC
78007C
78007C
F8003C
F0003C
F0003C
F0003C
F0003C
F0003C
F0003C
F0003C
F0003C
F0007C
F8007C
78007C
7C00FC
7E01FC
3F07FC
1FFFBC
0FFFBC
07FF3C
01FC3C
00003C
00003C
00007C
000078
780078
7C00F8
3E03F0
3FFFE0
1FFFC0
0FFF80
01FE00
ENDCHAR
STARTCHAR h
ENCODING 104
SWIDTH 556 0
DWIDTH 26 0
BBX 20 35 3 0
BITMAP
F00000
F00000
F00000
F00000
F00000
F00000
F00000
F07E00
F1FF80
F7FFC0
F7FFE0
FF07E0
FE01E0
FC01F0
F800F0
F800F0
F000F0
F000F0
F000F0
F000F0
F000F0
F000F0
F000F0
F000F0
F000F0
F000F0
F000F0
F000F0
F000F0
F000F0
F000F0
F000F0
F000F0
F000F0
F000F0
ENDCHAR
STARTCHAR i
ENCODING 105
SWIDTH 222 0
DWIDTH 10 0
BBX 4 35 3 0
BITMAP
F0
F0
F0
F0
00
00
00
00
F0
F0
F0
F0
F0
F0
F0
F0
F0
F0
F0
F0
F0
F0
F0
F0
F0
F0
F0
F0
F0
F0
F0
F0
F0
F0
F0
ENDCHAR
STARTCHAR j
ENCODING 106
SWIDTH 222 0
DWIDTH 11 0
BBX 8 45 -1 -10
BITMAP
0F
0F
0F
0F
0F
00
00
00
00
00
0F
0F
0F
0F
0F
0F
0F
0F
0F
0F
0F
0F
0F
0F
0F
0F
0F
0F
0F
0F
0F
0F
0F
0F
0F
0F
0F
0F
0F
0F
0F
FF
FE
FE
F8
ENDCHAR
STARTCHAR k
ENCODING 107
SWIDTH 500 0
DWIDTH 24 0
BBX 20 35 3 0
BITMAP
F00000
F00000
F00000
F00000
F00000
F00000
F00000
F00000
F001F0
F003E0
F007C0
F00F80
F01F00
F03E00
F07C00
F0F800
F1F000
F3E000
F7C000
FFE000
FFE000
FEF000
FCF800
F87800
F03C00
F03C00
F01E00
F01F00
F00F00
F00780
F007C0
F003C0
F003E0
F001E0
F000F0
ENDCHAR
STARTCHAR l
ENCODING 108
SWIDTH 222 0
DWIDTH 10 0
BBX 4 35 3 0
BITMAP
F0
F0
F0
F0
F0
F0
F0
F0
F0
F0
F0
F0
F0
F0
F0
F0
F0
F0
F0
F0
F0
F0
F0
F0
F0
F0
F0
F0
F0
F0
F0
F0
F0
F0
F0
ENDCHAR
STARTCHAR m
ENCODING 109
SWIDTH 833 0
DWIDTH 40 0
BBX 34 28 3 0
BITMAP
007E01F800
F1FF07FE00
F3FF8FFF00
F7FFDFFF80
FF07FE0F80
FE03F807C0
FC01F003C0
F801F003C0
F801E003C0
F001E003C0
F001E003C0
F001E003C0
F001E003C0
F001E003C0
F001E003C0
F001E003C0
F001E003C0
F001E003C0
F001E003C0
F001E003C0
F001E003C0
F001E003C0
F001E003C0
F001E003C0
F001E003C0
F001E003C0
F001E003C0
F001E003C0
ENDCHAR
STARTCHAR n
ENCODING 110
SWIDTH 556 0
DWIDTH 26 0
BBX 20 28 3 0
BITMAP
007E00
F1FF80
F3FFC0
F7FFE0
FF07E0
FE01E0
FC01F0
F800F0
F800F0
F000F0
F000F0
F000F0
F000F0
F000F0
F000F0
F000F0
F000F0
F000F0
F000F0
F000F0
F000F0
F000F0
F000F0
F000F0
F000F0
F000F0
F000F0
F000F0
ENDCHAR
STARTCHAR o
ENCODING 111
SWIDTH 556 0
DWIDTH 26 0
BBX 23 29 1 -1
BITMAP
00FE00
03FF80
07FFE0
0FFFF0
1F83F8
3E00F8
3C007C
7C003C
78003C
78003E
F8001E
F0001E
F0001E
F0001E
F0001E
F0001E
F0001E
F0001E
F0003E
F8003C
78003C
78007C
7C0078
3E00F8
3F83F0
1FFFF0
0FFFE0
07FF80
00FE00
ENDCHAR
STARTCHAR p
ENCODING 112
SWIDTH 556 0
DWIDTH 27 0
BBX 22 38 3 -10
BITMAP
007E00
F1FF80
F3FFC0
F7FFE0
FF03F0
FE01F0
FC00F8
F80078
F80078
F8007C
F0003C
F0003C
F0003C
F0003C
F0003C
F0003C
F0003C
F0003C
F0003C
F00078
F80078
F80078
FC00F8
FE01F0
FF07E0
FFFFE0
F7FFC0
F3FF80
F0FC00
F00000
F00000
F00000
F00000
F00000
F00000
F00000
F00000
F00000
ENDCHAR
STARTCHAR q
ENCODING 113
SWIDTH 556 0
DWIDTH 26 0
BBX 22 38 1 -10
BITMAP
00FC00
03FF3C
0FFFBC
1FFFBC
1F87FC
3E01FC
3C00FC
78007C
78007C
78007C
F0003C
F0003C
F0003C
F0003C
F0003C
F0003C
F0003C
F0003C
F0003C
F8007C
78007C
78007C
7C00FC
3E01FC
3F07FC
1FFFFC
0FFFBC
07FF3C
01FC3C
00003C
00003C
00003C
00003C
00003C
00003C
00003C
00003C
00003C
ENDCHAR
STARTCHAR r
ENCODING 114
SWIDTH 333 0
DWIDTH 16 0
BBX 12 28 3 0
BITMAP
00F0
F1F0
F7F0
F7F0
FF00
FC00
FC00
F800
F000
F000
F000
F000
F000
F000
F000
F000
F000
F000
F000
F000
F000
F000
F000
F000
F000
F000
F000
F000
ENDCHAR
STARTCHAR s
ENCODING 115
SWIDTH 500 0
DWIDTH 25 0
BBX 21 29 2 -1
BITMAP
01FC00
07FF00
1FFFC0
1FFFE0
3E07E0
7C01F0
7800F0
7800F0
780000
7C0000
7E0000
3FC000
3FF800
1FFF80
07FFE0
00FFF0
001FF0
0001F8
0000F8
000078
F00078
F00078
F80078
7C00F0
7E03F0
3FFFE0
1FFFC0
0FFF80
03FE00
ENDCHAR
STARTCHAR t
ENCODING 116
SWIDTH 277 0
DWIDTH 13 0
BBX 12 33 0 0
BITMAP
0F00
0F00
0F00
0F00
0F00
0F00
FFF0
FFF0
FFF0
FFF0
0F00
0F00
0F00
0F00
0F00
0F00
0F00
0F00
0F00
0F00
0F00
0F00
0F00
0F00
0F00
0F00
0F00
0F00
0F80
0FF0
07F0
07F0
03F0
ENDCHAR
STARTCHAR u
ENCODING 117
SWIDTH 556 0
DWIDTH 26 0
BBX 20 28 3 -1
BITMAP
F000F0
F000F0
F000F0
F000F0
F000F0
F000F0
F000F0
F000F0
F000F0
F000F0
F000F0
F000F0
F000F0
F000F0
F000F0
F000F0
F000F0
F000F0
F001F0
F001F0
F001F0
F803F0
F807F0
7E0FF0
7FFEF0
3FFCF0
1FF8F0
07E000
ENDCHAR
STARTCHAR v
ENCODING 118
SWIDTH 500 0
DWIDTH 26 0
BBX 23 27 1 0
BITMAP
F8001E
F8001E
F8003E
7C003C
7C003C
7C007C
3C0078
3E0078
1E00F0
1E00F0
1F00F0
0F01E0
0F01E0
0F83E0
0783C0
0783C0
07C7C0
03C780
03C780
03EF00
01EF00
01EF00
01FE00
00FE00
00FE00
007C00
007C00
ENDCHAR
STARTCHAR w
ENCODING 119
SWIDTH 722 0
DWIDTH 34 0
BBX 31 27 1 0
BITMAP
F007C01E
F007C01E
F807C01E
F807E01E
780FE03C
780FE03C
780EE03C
7C0EF03C
3C1EF078
3C1EF078
3C1C7078
3C1C7078
1E3C78F0
1E3C78F0
1E3C78F0
1E3838E0
0F3838E0
0F783DE0
0F783DE0
0F701DC0
07701DC0
07F01FC0
07F01FC0
03E00F80
03E00F80
03E00F80
03E00F80
ENDCHAR
STARTCHAR x
ENCODING 120
SWIDTH 500 0
DWIDTH 24 0
BBX 22 27 1 0
BITMAP
F800FC
7C00F8
7E01F0
3E01F0
1F03E0
1F87C0
0F87C0
0FCF80
07CF00
03FF00
03FE00
01FE00
00FC00
00FC00
01FC00
01FE00
03FF00
07DF00
07CF80
0F8FC0
1F87C0
1F03E0
3E03E0
7E01F0
7C01F8
FC00F8
F8007C
ENDCHAR
STARTCHAR y
ENCODING 121
SWIDTH 500 0
DWIDTH 26 0
BBX 23 37 1 -10
BITMAP
F8003E
F8003E
F8003E
7C007C
7C007C
7C007C
3E00F8
3E00F8
3E00F0
1F01F0
1F01F0
0F01E0
0F81E0
0F83E0
0783C0
0783C0
07C7C0
03C780
03C780
03EF80
01EF00
01EF00
01FE00
00FE00
00FE00
00FC00
007C00
007800
007800
00F800
00F000
01F000
03E000
3FE000
3FC000
3F8000
3F0000
ENDCHAR
STARTCHAR z
ENCODING 122
SWIDTH 500 0
DWIDTH 24 0
BBX 21 27 1 0
BITMAP
7FFFF0
7FFFF0
7FFFF0
7FFFF0
0001E0
0003E0
0007C0
000F80
000F00
001F00
003E00
007C00
00F800
00F000
01F000
03E000
07C000
078000
0F8000
1F0000
3E0000
3C0000
7C0000
FFFFF8
FFFFF8
FFFFF8
FFFFF8
ENDCHAR
STARTCHAR braceleft
ENCODING 123
SWIDTH 333 0
DWIDTH 16 0
BBX 16 44 -1 -9
BITMAP
0007
003F
00FF
00FF
01FC
01F0
03E0
03E0
03C0
03C0
03C0
03C0
03C0
03C0
03C0
03C0
03C0
0780
0F80
3F00
FE00
E000
FE00
3F00
0F80
0780
07C0
03C0
03C0
03C0
03C0
03C0
03C0
03C0
03C0
03C0
03E0
03E0
01F0
01FC
00FF
007F
003F
0007
ENDCHAR
STARTCHAR bar
ENCODING 124
SWIDTH 259 0
DWIDTH 13 0
BBX 4 35 5 0
BITMAP
F0
F0
F0
F0
F0
F0
F0
F0
F0
F0
F0
F0
F0
F0
F0
F0
F0
F0
F0
F0
F0
F0
F0
F0
F0
F0
F0
F0
F0
F0
F0
F0
F0
F0
F0
ENDCHAR
STARTCHAR braceright
ENCODING 125
SWIDTH 333 0
DWIDTH 16 0
BBX 16 44 1 -9
BITMAP
E000
FC00
FE00
FF00
3F80
0F80
0780
03C0
03C0
03C0
03C0
03C0
03C0
03C0
03C0
03C0
03C0
01E0
01F0
00FC
007F
0007
007F
00FC
01F0
01E0
03E0
03C0
03C0
03C0
03C0
03C0
03C0
03C0
03C0
03C0
07C0
0780
0F80
3F00
FF00
FC00
F800
E000
ENDCHAR
STARTCHAR asciitilde
ENCODING 126
SWIDTH 583 0
DWIDTH 28 0
BBX 28 10 0 8
BITMAP
00000070
07C00070
1FF800E0
3FFE01E0
3FFFC3E0
7C3FFFC0
700FFF80
7001FF80
E0003E00
E0000000
ENDCHAR
STARTCHAR degree
ENCODING 176
SWIDTH 399 0
DWIDTH 18 0
BBX 14 14 2 21
BITMAP
0FC0
1FE0
3FF0
7878
F03C
E01C
E01C
E01C
E01C
F03C
7878
3FF0
1FE0
0FC0
ENDCHAR
STARTCHAR ordmasculine
ENCODING 186
SWIDTH 365 0
DWIDTH 17 0
BBX 15 17 1 19
BITMAP
07E0
1FF0
3FF8
783C
701C
F01E
E00E
E00E
E00E
E00E
E00E
F01E
701C
783C
3FF8
1FF0
0FE0
ENDCHAR
ENDFONT
